<svg xmlns="http://www.w3.org/2000/svg" viewBox="178.1 -1821.9 2243.8 2243.8" fill="currentColor">
  <path d="M2340 340L260 340L260-1740L2340-1740L2340 340ZM865 311L570 311L570-862L865-862L865 311ZM2318 2L282 2L282-51L2318-51L2318 2ZM1448 311L1153 311L1153-532L1448-532L1448 311ZM2318-336L282-336L282-389L2318-389L2318-336ZM313-1687L313 287L2287 287L2287-1687L313-1687ZM2318-674L282-674L282-726L2318-726L2318-674ZM2318-1011L282-1011L282-1064L2318-1064L2318-1011ZM2030 311L1735 311L1735-1386L2030-1386L2030 311ZM2319-1349L283-1349L283-1402L2319-1402L2319-1349Z"/>
</svg>