<svg xmlns="http://www.w3.org/2000/svg" viewBox="48.1 -1951.9 2503.8 2503.8" fill="currentColor">
  <path d="M2181 340L419 340Q309 340 241 282Q173 224 157 118L157 118Q149 59 142.50-41.50Q136-142 133-262.50Q130-383 130-501L130-501Q130-674 136.50-841Q143-1008 156-1144L156-1144Q167-1266 234.50-1332.50Q302-1399 415-1399L415-1399L2185-1399Q2298-1399 2366-1332.50Q2434-1266 2444-1144L2444-1144Q2456-1008 2463-841Q2470-674 2470-501L2470-501Q2470-383 2466.50-262.50Q2463-142 2457-41.50Q2451 59 2443 118L2443 118Q2429 224 2360 282Q2291 340 2181 340L2181 340ZM1125-435L1125-265L1475-265L1475-435L1125-435ZM1555-185L1045-185L1045-765L1555-765L1555-185ZM419 260L419 260L2181 260Q2341 260 2364 106L2364 106Q2373 44 2379-59.50Q2385-163 2387.50-280.50Q2390-398 2390-501L2390-501Q2390-590 2388-677Q2386-764 2382-846L2382-846Q2342-741 2246-660.50Q2150-580 1972-531Q1794-482 1506-468L1506-468L1506-547Q1741-557 1905-594.50Q2069-632 2170-702Q2271-772 2317.50-879.50Q2364-987 2364-1138L2364-1138Q2364-1228 2315.50-1273.50Q2267-1319 2185-1319L2185-1319L415-1319Q333-1319 284.50-1273.50Q236-1228 236-1138L236-1138Q236-987 282.50-879Q329-771 430.50-701Q532-631 695.50-594Q859-557 1093-547L1093-547L1093-468Q806-482 628-531Q450-580 354-660.50Q258-741 218-846L218-846Q214-764 212-677Q210-590 210-501L210-501Q210-398 213-280.50Q216-163 221.50-59.50Q227 44 236 106L236 106Q259 260 419 260ZM1125-685L1125-515L1475-515L1475-685L1125-685ZM1050-1375L970-1375L970-1602L1050-1602L1050-1375ZM1002-1517L1002-1517Q979-1517 964-1534Q949-1551 949-1578L949-1578Q949-1647 1049.50-1693.50Q1150-1740 1301-1740L1301-1740Q1452-1740 1551.50-1693.50Q1651-1647 1651-1578L1651-1578Q1651-1551 1636-1534Q1621-1517 1598-1517L1598-1517Q1584-1517 1564-1527L1564-1527Q1500-1559 1442-1572.50Q1384-1586 1301-1586L1301-1586Q1216-1586 1158.50-1572.50Q1101-1559 1036-1527L1036-1527Q1016-1517 1002-1517ZM1630-1375L1550-1375L1550-1602L1630-1602L1630-1375Z"/>
</svg>