<svg xmlns="http://www.w3.org/2000/svg" viewBox="178.1 -1821.9 2243.8 2243.8" fill="currentColor">
  <path d="M2290 340L310 340L310-1740L584-1740L584-1647Q584-1628 569-1620L569-1620Q519-1593 519-1533L519-1533Q519-1491 548.50-1461.50Q578-1432 618-1432L618-1432Q659-1432 688-1461.50Q717-1491 717-1533L717-1533Q717-1593 667-1620L667-1620Q652-1628 652-1647L652-1647L652-1740L1948-1740L1948-1647Q1948-1628 1933-1620L1933-1620Q1883-1593 1883-1533L1883-1533Q1883-1491 1912.50-1461.50Q1942-1432 1982-1432L1982-1432Q2023-1432 2052-1461.50Q2081-1491 2081-1533L2081-1533Q2081-1593 2031-1620L2031-1620Q2016-1628 2016-1647L2016-1647L2016-1740L2290-1740L2290 340ZM1215 36L795 36L795-60L955-60L955-566L824-566L824-640Q876-650 914.50-663.50Q953-677 985-696L985-696L1073-696L1073-60L1215-60L1215 36ZM390-910L390 260L2210 260L2210-910L390-910ZM1623 36L1504 36Q1510-98 1530-204Q1550-310 1592-405Q1634-500 1704-598L1704-598L1361-598L1361-696L1834-696L1834-626Q1748-519 1705-422Q1662-325 1645.50-216Q1629-107 1623 36L1623 36ZM863-1148L863-1148Q921-1148 947-1184Q973-1220 973-1271L973-1271L973-1533L912-1533L912-1276Q912-1235 898-1217.50Q884-1200 856-1200L856-1200Q819-1200 794-1242L794-1242L752-1211Q788-1148 863-1148ZM1145-1148L1145-1148Q1174-1148 1196.50-1161.50Q1219-1175 1238-1197L1238-1197L1240-1197L1245-1155L1295-1155L1295-1441L1235-1441L1235-1242Q1201-1200 1167-1200L1167-1200Q1120-1200 1120-1267L1120-1267L1120-1441L1060-1441L1060-1260Q1060-1206 1080-1177Q1100-1148 1145-1148ZM1443-1148L1443-1148Q1464-1148 1476-1153L1476-1153L1469-1198Q1463-1197 1459-1197L1459-1197Q1444-1197 1444-1219L1444-1219L1444-1563L1384-1563L1384-1222Q1384-1188 1397.50-1168Q1411-1148 1443-1148ZM1554-1040L1554-1040Q1599-1040 1624.50-1067Q1650-1094 1666-1140L1666-1140L1771-1441L1712-1441L1667-1295Q1661-1276 1655.50-1256Q1650-1236 1645-1215L1645-1215L1642-1215Q1636-1236 1629.50-1256Q1623-1276 1616-1295L1616-1295L1565-1441L1503-1441L1616-1158L1610-1139Q1595-1089 1551-1089L1551-1089Q1538-1089 1530-1092L1530-1092L1518-1046Q1533-1040 1554-1040Z"/>
</svg>