<svg xmlns="http://www.w3.org/2000/svg" viewBox="50.1 -1949.9 2499.8 2499.8" fill="currentColor">
  <path d="M1683 140L1683 140Q1475 140 1323 0L1323 0Q1219 49 1095 49L1095 49Q995 49 904 15.50Q813-18 750-79L750-79Q666-51 575-51L575-51Q453-51 352-97.50Q251-144 191.50-223Q132-302 132-398L132-398Q132-488 183-563Q234-638 317-686Q400-734 496-742L496-742Q502-847 557-932Q612-1017 700-1067.50Q788-1118 894-1118L894-1118Q911-1118 928.50-1116.50Q946-1115 962-1112L962-1112Q1006-1240 1094.50-1336Q1183-1432 1302.50-1486Q1422-1540 1557-1540L1557-1540Q1686-1540 1799.50-1491.50Q1913-1443 1999-1357Q2085-1271 2133.50-1157.50Q2182-1044 2182-915L2182-915Q2182-880 2178.50-845Q2175-810 2167-776L2167-776Q2253-761 2321-709.50Q2389-658 2428.50-582Q2468-506 2468-416L2468-416Q2468-316 2418.50-233Q2369-150 2286.50-100.50Q2204-51 2103-51L2103-51L2091-51Q2016 40 1909 90Q1802 140 1683 140ZM1683 60L1683 60Q1795 60 1893 9Q1991-42 2055-134L2055-134Q2071-132 2081-131.50Q2091-131 2103-131L2103-131Q2182-131 2246.50-169.50Q2311-208 2349.50-273Q2388-338 2388-416L2388-416Q2388-502 2343.50-570Q2299-638 2228-677.50Q2157-717 2077-717L2077-717Q2086-755 2094-806.50Q2102-858 2102-915L2102-915Q2102-1028 2059.50-1126.50Q2017-1225 1942-1300Q1867-1375 1768.50-1417.50Q1670-1460 1557-1460L1557-1460Q1440-1460 1336-1413.50Q1232-1367 1154.50-1284Q1077-1201 1039-1091L1039-1091Q1151-1047 1222-947.50Q1293-848 1293-729L1293-729L1213-729Q1213-812 1170-882.50Q1127-953 1054.50-995.50Q982-1038 894-1038L894-1038Q806-1038 733.50-995Q661-952 618-879.50Q575-807 575-719L575-719L575-668Q464-660 382.50-621.50Q301-583 256.50-524.50Q212-466 212-398L212-398Q212-325 261-264.50Q310-204 392.50-167.50Q475-131 575-131L575-131Q682-131 773-175L773-175Q822-108 907.50-69.50Q993-31 1095-31L1095-31Q1235-31 1337-100L1337-100Q1475 60 1683 60Z"/>
</svg>