<svg xmlns="http://www.w3.org/2000/svg" viewBox="178.1 -1822.4 2244.8 2244.8" fill="currentColor">
  <path d="M1479 340L1122 340L1088 0Q1057-9 1023.50-22.50Q990-36 954-54L954-54L690 161L438-91L653-356Q618-425 600-489L600-489L260-523L260-878L601-912Q620-982 654-1043L654-1043L438-1309L690-1561L955-1346Q1012-1379 1088-1401L1088-1401L1122-1740L1479-1740L1513-1401Q1586-1380 1646-1346L1646-1346L1910-1561L2163-1309L1946-1043Q1980-983 2000-912L2000-912L2341-878L2341-523L2001-489Q1981-424 1948-356L1948-356L2163-91L1910 161L1646-54Q1611-36 1578-22.50Q1545-9 1513 0L1513 0L1479 340ZM1161-63L1194 260L1407 260L1439-63Q1554-88 1653-153L1653-153L1906 53L2055-95L1849-348Q1915-458 1936-562L1936-562L2261-595L2261-806L1937-838Q1924-898 1901.50-951Q1879-1004 1848-1050L1848-1050L2055-1305L1906-1453L1653-1247Q1549-1315 1439-1336L1439-1336L1407-1660L1194-1660L1161-1336Q1052-1315 947-1247L947-1247L694-1453L546-1305L753-1050Q722-1004 699.50-951Q677-898 663-838L663-838L340-806L340-595L665-562Q684-459 751-348L751-348L546-95L694 53L947-153Q1045-89 1161-63L1161-63ZM1300-420L1300-420Q1223-420 1159.50-457.50Q1096-495 1058.50-558.50Q1021-622 1021-699L1021-699Q1021-777 1058.50-840.50Q1096-904 1159.50-941.50Q1223-979 1300-979L1300-979Q1378-979 1441.50-941.50Q1505-904 1542.50-840.50Q1580-777 1580-699L1580-699Q1580-622 1542.50-558.50Q1505-495 1441.50-457.50Q1378-420 1300-420ZM1300-495L1300-495Q1386-495 1445.50-554.50Q1505-614 1505-699L1505-699Q1505-785 1445.50-844.50Q1386-904 1300-904L1300-904Q1215-904 1155.50-844.50Q1096-785 1096-699L1096-699Q1096-614 1155.50-554.50Q1215-495 1300-495ZM1300-272L1300-272Q1418-272 1514.50-330Q1611-388 1669-485Q1727-582 1727-699L1727-699Q1727-817 1669-913.50Q1611-1010 1514.50-1068Q1418-1126 1300-1126L1300-1126Q1183-1126 1086-1068Q989-1010 931-913.50Q873-817 873-699L873-699Q873-582 931-485Q989-388 1086-330Q1183-272 1300-272ZM1300-202L1300-202Q1163-202 1050-269Q937-336 870-449Q803-562 803-699L803-699Q803-836 870-949Q937-1062 1050-1129Q1163-1196 1300-1196L1300-1196Q1437-1196 1550-1129Q1663-1062 1730-949.50Q1797-837 1797-699L1797-699Q1797-562 1730-449Q1663-336 1550.50-269Q1438-202 1300-202Z"/>
</svg>