<svg xmlns="http://www.w3.org/2000/svg" viewBox="178.1 -1821.9 2243.8 2243.8" fill="currentColor">
  <path d="M1301 340L1301 340Q1087 340 898.50 260Q710 180 566.50 38Q423-104 341.50-293Q260-482 260-700L260-700Q260-914 341.50-1102.50Q423-1291 566.50-1434.50Q710-1578 898.50-1659Q1087-1740 1301-1740L1301-1740Q1515-1740 1703-1659Q1891-1578 2034.50-1434.50Q2178-1291 2259-1102.50Q2340-914 2340-700L2340-700Q2340-482 2259-293Q2178-104 2034.50 38Q1891 180 1703 260Q1515 340 1301 340ZM1412-329L1412-329Q1396-329 1396-350L1396-350Q1396-395 1433-397L1433-397Q1458-398 1458-378L1458-378Q1458-359 1445-344Q1432-329 1412-329ZM1635 15L1635 15Q1650 15 1665-8.50Q1680-32 1693.50-62.50Q1707-93 1717-112L1717-112Q1736-149 1745-177.50Q1754-206 1754-223L1754-223Q1754-237 1745-237L1745-237Q1735-237 1720.50-217.50Q1706-198 1688-177L1688-177Q1669-155 1646-140Q1623-125 1623-114L1623-114Q1623-86 1622-55.50Q1621-25 1621-8L1621-8Q1621 15 1635 15ZM1300 157L1300 157Q1335 157 1351 150.50Q1367 144 1386 130L1386 130Q1409 113 1417.50 99Q1426 85 1435 78L1435 78Q1470 49 1484.50 29Q1499 9 1499-30L1499-30Q1499-45 1521.50-65Q1544-85 1566.50-105Q1589-125 1589-141L1589-141Q1589-147 1588-174Q1587-201 1586-234.50Q1585-268 1585-294L1585-294Q1585-341 1612.50-377.50Q1640-414 1676-450Q1712-486 1739.50-529Q1767-572 1767-632L1767-632Q1767-647 1762.50-660Q1758-673 1750-673L1750-673Q1734-673 1707-652Q1680-631 1633-631L1633-631Q1615-631 1612-644.50Q1609-658 1597-674L1597-674Q1587-687 1567.50-697Q1548-707 1537-718L1537-718Q1533-722 1531-732Q1529-742 1521-752L1521-752Q1517-758 1508-762.50Q1499-767 1494-774L1494-774Q1486-788 1483.50-806Q1481-824 1467-846L1467-846Q1463-853 1452.50-854Q1442-855 1439-861L1439-861Q1436-867 1436.50-877.50Q1437-888 1435-893L1435-893Q1423-922 1413.50-935Q1404-948 1404-953L1404-953Q1404-962 1411-962L1411-962Q1416-962 1420-955Q1424-948 1432-940L1432-940Q1437-935 1442.50-929.50Q1448-924 1452-917L1452-917Q1457-910 1459-902.50Q1461-895 1467-887L1467-887Q1472-881 1481-875.50Q1490-870 1494-863L1494-863Q1503-850 1504.50-841Q1506-832 1525-806L1525-806Q1545-779 1557-774.50Q1569-770 1588-741L1588-741Q1600-723 1608.50-695Q1617-667 1634-667L1634-667Q1644-667 1655-672.50Q1666-678 1687-690L1687-690Q1701-698 1720.50-706.50Q1740-715 1754-728L1754-728Q1761-734 1768-744.50Q1775-755 1785-763L1785-763Q1794-770 1806-774Q1818-778 1822-784L1822-784Q1840-808 1848-832Q1856-856 1856-886L1856-886Q1856-904 1843.50-912.50Q1831-921 1817-931L1817-931Q1807-938 1798-947.50Q1789-957 1781-957L1781-957Q1767-957 1758.50-937.50Q1750-918 1735-918L1735-918Q1723-918 1695-941L1695-941Q1690-946 1685.50-956Q1681-966 1676-971L1676-971Q1662-985 1649-992.50Q1636-1000 1636-1013L1636-1013Q1636-1024 1649-1024L1649-1024Q1666-1024 1684-998.50Q1702-973 1731-973L1731-973Q1745-973 1753.50-982Q1762-991 1778-991L1778-991Q1792-991 1799.50-974.50Q1807-958 1835-958L1835-958Q1872-958 1885.50-966Q1899-974 1919-974L1919-974Q1934-974 1950.50-952.50Q1967-931 1987-909Q2007-887 2029-887L2029-887Q2034-867 2051-838Q2068-809 2087-771L2087-771Q2099-748 2109-727Q2119-706 2132-706L2132-706Q2146-706 2151.50-731.50Q2157-757 2157-832L2157-832Q2157-897 2159-962Q2161-1027 2166-1109L2166-1109Q2124-1208 2044.50-1303Q1965-1398 1862-1475.50Q1759-1553 1644.50-1600Q1530-1647 1418-1651L1418-1651Q1401-1637 1395-1622Q1389-1607 1389-1599L1389-1599Q1389-1588 1400-1588Q1411-1588 1422-1589Q1433-1590 1433-1582L1433-1582Q1433-1566 1406.50-1560Q1380-1554 1366-1554L1366-1554Q1351-1554 1331.50-1579Q1312-1604 1280-1604L1280-1604Q1243-1604 1201-1580.50Q1159-1557 1127-1525L1127-1525Q1114-1512 1093.50-1504Q1073-1496 1057.50-1485Q1042-1474 1042-1450L1042-1450Q1042-1437 1049-1431Q1056-1425 1063-1425L1063-1425Q1071-1425 1078.50-1431.50Q1086-1438 1089-1438L1089-1438Q1094-1438 1095-1420Q1096-1402 1115-1402L1115-1402Q1126-1402 1134.50-1410Q1143-1418 1150-1425L1150-1425Q1159-1434 1167-1441.50Q1175-1449 1175-1453L1175-1453Q1175-1459 1174-1464Q1173-1469 1173-1476L1173-1476Q1173-1483 1188-1500Q1203-1517 1213-1517L1213-1517Q1219-1517 1219-1512L1219-1512Q1219-1505 1208-1490.50Q1197-1476 1197-1469L1197-1469Q1197-1463 1206-1463L1206-1463Q1214-1463 1229-1468.50Q1244-1474 1255-1474L1255-1474Q1268-1474 1268-1466L1268-1466Q1268-1459 1250-1452.50Q1232-1446 1210-1446L1210-1446Q1206-1446 1189-1427L1189-1427Q1183-1420 1170.50-1413.50Q1158-1407 1150-1399L1150-1399Q1141-1390 1130.50-1382.50Q1120-1375 1109-1375L1109-1375Q1096-1375 1091-1382.50Q1086-1390 1079-1397Q1072-1404 1054-1404L1054-1404Q1044-1404 1040.50-1396.50Q1037-1389 1026-1382L1026-1382Q1018-1377 1005.50-1374.50Q993-1372 985-1365L985-1365Q966-1349 953-1336.50Q940-1324 927-1324L927-1324Q920-1324 914-1326Q908-1328 905-1328L905-1328Q897-1328 887-1320.50Q877-1313 869-1307L869-1307Q865-1303 861-1298.50Q857-1294 857-1287L857-1287Q857-1280 861-1275Q865-1270 880-1256L880-1256Q874-1254 867-1238L867-1238Q862-1237 854-1237Q846-1237 840-1237L840-1237Q821-1237 811-1240Q801-1243 799-1243L799-1243Q783-1243 763-1186L763-1186Q759-1176 752.50-1166.50Q746-1157 746-1149L746-1149Q746-1130 758.50-1113.50Q771-1097 781-1097L781-1097Q814-1097 842-1116L842-1116Q853-1124 860.50-1139Q868-1154 879-1161L879-1161Q903-1177 917.50-1187.50Q932-1198 932-1207L932-1207Q961-1207 976-1222.50Q991-1238 998-1238L998-1238Q1003-1238 1005.50-1229Q1008-1220 1018-1206L1018-1206Q1025-1196 1034.50-1188.50Q1044-1181 1052-1173L1052-1173Q1064-1161 1075.50-1149Q1087-1137 1094-1137L1094-1137Q1105-1137 1108-1147Q1111-1157 1111-1167L1111-1167Q1111-1178 1087.50-1200.50Q1064-1223 1064-1241L1064-1241Q1064-1251 1068-1259L1068-1259Q1070-1257 1076.50-1249.50Q1083-1242 1095-1234L1095-1234Q1105-1227 1115.50-1221Q1126-1215 1129-1204L1129-1204Q1136-1180 1148-1161.50Q1160-1143 1163-1126L1163-1126Q1165-1115 1173.50-1106Q1182-1097 1186-1097L1186-1097Q1198-1097 1205-1107Q1212-1117 1212-1127L1212-1127Q1212-1138 1207.50-1142Q1203-1146 1203-1165L1203-1165Q1203-1174 1211-1177.50Q1219-1181 1241-1181L1241-1181Q1255-1181 1266.50-1188Q1278-1195 1278-1205L1278-1205Q1278-1229 1293.50-1250Q1309-1271 1329-1271L1329-1271Q1338-1271 1345.50-1265Q1353-1259 1363-1259L1363-1259Q1370-1259 1384.50-1266.50Q1399-1274 1409-1274L1409-1274Q1422-1274 1433-1262Q1444-1250 1457-1242L1457-1242Q1468-1235 1477-1234Q1486-1233 1486-1231L1486-1231Q1486-1217 1463.50-1209Q1441-1201 1411-1201L1411-1201Q1400-1201 1392-1207.50Q1384-1214 1373-1214L1373-1214Q1361-1214 1351-1209.50Q1341-1205 1328-1202L1328-1202Q1301-1196 1277-1183.50Q1253-1171 1253-1155L1253-1155Q1253-1142 1267-1121.50Q1281-1101 1309-1101L1309-1101Q1315-1101 1320-1103Q1325-1105 1332-1107L1332-1107Q1337-1109 1344-1108.50Q1351-1108 1356-1108L1356-1108Q1370-1108 1379.50-1116Q1389-1124 1399-1124L1399-1124Q1404-1124 1406-1117.50Q1408-1111 1408-1097L1408-1097Q1408-1050 1405-1036.50Q1402-1023 1385-1023L1385-1023Q1369-1023 1367-1012Q1365-1001 1351-1001L1351-1001Q1309-1001 1263-1017Q1217-1033 1170-1033L1170-1033Q1148-1033 1142.50-1024.50Q1137-1016 1134.50-1007.50Q1132-999 1120-999L1120-999Q1099-999 1083-1013Q1067-1027 1044-1040L1044-1040Q1034-1045 1018.50-1048.50Q1003-1052 1003-1060L1003-1060Q1003-1068 1008.50-1074.50Q1014-1081 1014-1088L1014-1088Q1014-1099 994.50-1107.50Q975-1116 960-1116L960-1116Q947-1116 917-1112Q887-1108 873-1108L873-1108Q853-1108 840-1093Q827-1078 812-1078L812-1078Q799-1078 780.50-1080Q762-1082 746-1082L746-1082Q724-1082 702.50-1059.50Q681-1037 676-1013L676-1013Q671-990 657.50-978.50Q644-967 621-958L621-958Q614-955 604.50-936Q595-917 585-902L585-902Q575-887 565-878.50Q555-870 555-854L555-854Q555-790 537-744.50Q519-699 519-649L519-649Q519-601 551-589L551-589Q560-586 579-556.50Q598-527 621-498.50Q644-470 664-470L664-470Q674-470 683-476Q692-482 699-482L699-482Q711-482 720-470Q729-458 750-458L750-458Q773-458 795-473.50Q817-489 833-489L833-489Q845-489 851-479.50Q857-470 867.50-460.50Q878-451 901-451L901-451Q946-451 946-416L946-416Q946-403 944.50-391Q943-379 943-362L943-362Q943-328 968.50-303Q994-278 1021-245.50Q1048-213 1053-156L1053-156Q1042-146 1034.50-130Q1027-114 1027-88L1027-88Q1027-77 1045-47Q1063-17 1092 14L1092 14Q1105 27 1116 41.50Q1127 56 1140 72L1140 72Q1148 82 1160 88.50Q1172 95 1180 105L1180 105Q1206 135 1230.50 146Q1255 157 1300 157ZM985-1141L985-1141Q993-1141 1000-1155Q1007-1169 1007-1188L1007-1188Q1007-1207 996-1207L996-1207Q972-1207 972-1167L972-1167Q972-1141 985-1141ZM928-1345L928-1345Q942-1345 951.50-1361.50Q961-1378 961-1423L961-1423Q961-1435 958-1445Q955-1455 943-1455L943-1455Q918-1455 918-1412L918-1412Q918-1405 911.50-1402Q905-1399 888-1399L888-1399Q876-1399 860-1387Q844-1375 844-1361L844-1361Q844-1352 859.50-1348.50Q875-1345 928-1345ZM1368-1070L1368-1070Q1386-1070 1386-1085L1386-1085Q1386-1099 1368-1099L1368-1099Q1350-1099 1350-1085L1350-1085Q1350-1070 1368-1070ZM839-1477L839-1477Q850-1477 866.50-1484.50Q883-1492 902-1499L902-1499Q931-1510 965.50-1524Q1000-1538 1034-1552L1034-1552Q1085-1573 1131-1586Q1177-1599 1177-1612L1177-1612Q1177-1623 1157-1627Q1137-1631 1111-1633Q1085-1635 1067-1638L1067-1638L902-1583Q866-1556 842.50-1529Q819-1502 819-1488L819-1488Q819-1477 839-1477ZM1661-1132L1661-1132Q1626-1132 1612-1147Q1598-1162 1591.50-1183.50Q1585-1205 1571-1223L1571-1223Q1557-1243 1541.50-1248.50Q1526-1254 1526-1281L1526-1281Q1526-1301 1537.50-1312.50Q1549-1324 1563-1324L1563-1324Q1575-1324 1584.50-1315.50Q1594-1307 1594-1296L1594-1296Q1594-1289 1592.50-1284Q1591-1279 1591-1276L1591-1276Q1591-1266 1617-1248.50Q1643-1231 1669-1208Q1695-1185 1695-1157L1695-1157Q1695-1147 1688-1139.50Q1681-1132 1661-1132Z"/>
</svg>