<svg xmlns="http://www.w3.org/2000/svg" viewBox="13.1 -1986.9 2573.8 2573.8" fill="currentColor">
  <path d="M2505-866L1299-183L95-868L95-1043L1300-1740L2505-1043L2505-866ZM615 340L615 340Q588 340 568.50 318Q549 296 544 262L544 262Q539 290 523 309.50Q507 329 490 329L490 329Q455 329 455 276L455 276Q455 218 465.50 137.50Q476 57 493-32.50Q510-122 530.50-209Q551-296 572-366L572-366Q549-383 534.50-406Q520-429 520-454L520-454Q520-483 533.50-507.50Q547-532 572-543L572-543L572-664Q572-729 587-760.50Q602-792 645-820L645-820L1183-1159L1257-1108L732-772Q691-746 681.50-721.50Q672-697 667-641L667-641L659-543Q685-533 698.50-508.50Q712-484 712-454L712-454Q712-426 698-401Q684-376 658-367L658-367Q679-296 700-209Q721-122 738.50-32.50Q756 57 766.50 137Q777 217 777 276L777 276Q777 329 741 329L741 329Q724 329 708 309.50Q692 290 687 262L687 262Q683 296 663 318Q643 340 615 340ZM1309 21L1309 21Q1122 21 939-49.50Q756-120 613-247L613-247L664-307Q796-190 966-125Q1136-60 1309-60L1309-60Q1486-60 1644-118Q1802-176 1922-285L1922-285L1922-576L2002-624L2002-248Q1910-161 1799.50-101Q1689-41 1565.50-10Q1442 21 1309 21ZM145-908L1297-251L2425-890L2425-936L1297-297L145-954L145-908ZM182-1002L1297-366L2417-1000L1299-1648L182-1002ZM1224-1053L1224-1053Q1184-1053 1154.50-1078.50Q1125-1104 1125-1138L1125-1138Q1125-1168 1150-1193.50Q1175-1219 1210.50-1234.50Q1246-1250 1279-1250L1279-1250Q1321-1250 1349-1226Q1377-1202 1377-1168L1377-1168Q1377-1138 1352.50-1111.50Q1328-1085 1293-1069Q1258-1053 1224-1053Z"/>
</svg>