<svg xmlns="http://www.w3.org/2000/svg" viewBox="88.1 -1911.9 2423.8 2423.8" fill="currentColor">
  <path d="M1300 340L1300 340Q1695 37 1944.50-218Q2194-473 2312-698Q2430-923 2430-1136L2430-1136Q2430-1262 2387.50-1371.50Q2345-1481 2268.50-1564Q2192-1647 2089.50-1693.50Q1987-1740 1868-1740L1868-1740Q1747-1740 1634-1693.50Q1521-1647 1433.50-1566.50Q1346-1486 1300-1383L1300-1383Q1255-1486 1167-1566.50Q1079-1647 966-1693.50Q853-1740 732-1740L732-1740Q613-1740 510.50-1693.50Q408-1647 331.50-1564Q255-1481 212.50-1371.50Q170-1262 170-1136L170-1136Q170-923 288-698Q406-473 655.50-218Q905 37 1300 340ZM420-533L500-513L500-1617L420-1617L420-533ZM700-197L780-177L780-1693L700-1693L700-197ZM980 57L1060 77L1060-1630L980-1630L980 57ZM1260-1375L1260 291L1340 291L1340-1375L1260-1375ZM1300 245L1300 245Q935-38 703-279.50Q471-521 360.50-732.50Q250-944 250-1136L250-1136Q250-1283 313.50-1401.50Q377-1520 486-1590Q595-1660 732-1660L732-1660Q860-1660 969-1607Q1078-1554 1162.50-1456Q1247-1358 1300-1224L1300-1224Q1353-1358 1437.50-1456Q1522-1554 1631.50-1607Q1741-1660 1868-1660L1868-1660Q2005-1660 2114-1590Q2223-1520 2286.50-1401.50Q2350-1283 2350-1136L2350-1136Q2350-944 2239.50-732.50Q2129-521 1897-279.50Q1665-38 1300 245ZM1540-1630L1540 77L1620 57L1620-1630L1540-1630ZM1820-1693L1820-177L1900-197L1900-1693L1820-1693ZM2100-1617L2100-513L2180-533L2180-1617L2100-1617Z"/>
</svg>