<svg xmlns="http://www.w3.org/2000/svg" viewBox="178.1 -1821.9 2243.8 2243.8" fill="currentColor">
  <path d="M1618-291L1664-398Q1695-415 1723.50-436Q1752-457 1777-482L1777-482L2117-824Q2186-894 2223-984Q2260-1074 2260-1172L2260-1172Q2260-1271 2223-1360Q2186-1449 2117-1518L2117-1518Q1975-1660 1771-1660L1771-1660Q1568-1660 1424-1518L1424-1518L1081-1176Q940-1037 940-833L940-833Q940-733 977-642Q1014-551 1084-482L1084-482Q1196-371 1346-347L1346-347L1282-280Q1135-319 1028-426L1028-426Q948-506 904-612Q860-718 860-833L860-833Q860-946 903-1050Q946-1154 1025-1232L1025-1232L1368-1574Q1448-1654 1552.50-1697Q1657-1740 1771-1740L1771-1740Q1884-1740 1989-1697Q2094-1654 2173-1574L2173-1574Q2253-1494 2296.50-1389.50Q2340-1285 2340-1172L2340-1172Q2340-1059 2296.50-953.50Q2253-848 2173-768L2173-768L1833-426Q1743-336 1618-291L1618-291ZM1269-1052L1324-1120Q1468-1080 1573-975L1573-975Q1653-896 1696-791Q1739-686 1739-573L1739-573Q1739-459 1696-354Q1653-249 1573-169L1573-169L1233 173Q1154 253 1049 296.50Q944 340 831 340L831 340Q718 340 613.50 296.50Q509 253 428 173L428 173Q348 93 304-13Q260-119 260-234L260-234Q260-347 303-451Q346-555 425-633L425-633L768-975Q861-1066 977-1106L977-1106L927-996Q898-980 872.50-961Q847-942 824-919L824-919L481-577Q340-438 340-234L340-234Q340-134 377-43Q414 48 484 117L484 117Q629 260 831 260L831 260Q1034 260 1177 117L1177 117L1517-225Q1659-369 1659-573L1659-573Q1659-777 1517-919L1517-919Q1415-1021 1269-1052L1269-1052ZM1152-812L1152-892Q1158-892 1163.50-892Q1169-892 1172-892L1172-892Q1305-892 1398-797L1398-797Q1490-703 1490-569L1490-569Q1490-506 1465.50-447.50Q1441-389 1397-344L1397-344L1055-1Q1012 42 949.50 68Q887 94 825 94L825 94Q769 94 708 68.50Q647 43 606 3L606 3Q507-94 507-227L507-227Q507-290 531-349Q555-408 601-454L601-454L906-759L920-661L659-398Q587-324 587-227L587-227Q587-128 662-53L662-53Q691-24 737.50-5Q784 14 825 14L825 14Q872 14 919.50-5.50Q967-25 999-57L999-57L1341-400Q1410-469 1410-569L1410-569Q1410-669 1340-741L1340-741Q1271-812 1172-812L1172-812Q1169-812 1163.50-812Q1158-812 1152-812L1152-812ZM1686-632L1675-731L1941-999Q2011-1069 2011-1168L2011-1168Q2011-1267 1940-1340L1940-1340Q1871-1411 1772-1411L1772-1411Q1669-1411 1600-1340L1600-1340L1259-997Q1187-923 1187-826L1187-826Q1187-727 1262-652L1262-652Q1291-623 1337.50-604Q1384-585 1425-585L1425-585Q1428-585 1432.50-585Q1437-585 1444-585L1444-585L1444-505Q1439-505 1433.50-505Q1428-505 1425-505L1425-505Q1369-505 1308-530.50Q1247-556 1206-596L1206-596Q1107-693 1107-826L1107-826Q1107-889 1131-948Q1155-1007 1201-1053L1201-1053L1544-1396Q1639-1491 1772-1491L1772-1491Q1905-1491 1998-1396L1998-1396Q2091-1301 2091-1168L2091-1168Q2091-1105 2066.50-1046.50Q2042-988 1997-943L1997-943L1686-632Z"/>
</svg>