<svg xmlns="http://www.w3.org/2000/svg" viewBox="178.1 -1821.9 2243.8 2243.8" fill="currentColor">
  <path d="M1290 340L1290 340Q1001 340 837 249.50Q673 159 658 4L658 4Q647-113 639.50-246Q632-379 629-547.50Q626-716 626-936L626-936L706-936Q706-717 709-549Q712-381 719-249Q726-117 738-3L738-3Q751 118 890 189Q1029 260 1290 260L1290 260Q1491 260 1634 226.50Q1777 193 1853.50 134.50Q1930 76 1930 0L1930 0Q1930-19 1925.50-37.50Q1921-56 1908-82L1908-82Q1888-123 1877-163Q1866-203 1866-247L1866-247L1866-953L1946-953L1946-247Q1946-205 1956.50-170Q1967-135 1985-97L1985-97Q1999-69 2004.50-47.50Q2010-26 2010 0L2010 0Q2010 101 1922.50 177.50Q1835 254 1673.50 297Q1512 340 1290 340ZM1285-342L1285-342Q1201-342 1131.50-374.50Q1062-407 1008-473L1008-473L1053-512Q1100-455 1156.50-429Q1213-403 1285-403L1285-403Q1358-403 1415-429Q1472-455 1518-512L1518-512L1564-473Q1509-407 1439.50-374.50Q1370-342 1285-342ZM1009-647L1009-647Q972-647 947-674.50Q922-702 922-741L922-741Q922-780 947-807.50Q972-835 1009-835L1009-835Q1046-835 1070.50-807.50Q1095-780 1095-741L1095-741Q1095-702 1070.50-674.50Q1046-647 1009-647ZM1538-647L1538-647Q1501-647 1476.50-674.50Q1452-702 1452-741L1452-741Q1452-780 1476.50-807.50Q1501-835 1538-835L1538-835Q1576-835 1600-807.50Q1624-780 1624-741L1624-741Q1624-702 1600-674.50Q1576-647 1538-647ZM662-673L662-673Q640-673 624-714Q608-755 599-825.50Q590-896 590-983L590-983Q590-1215 671.50-1385Q753-1555 909-1647.50Q1065-1740 1288-1740L1288-1740Q1510-1740 1665-1647.50Q1820-1555 1901-1385Q1982-1215 1982-983L1982-983Q1982-896 1973-825.50Q1964-755 1948-714Q1932-673 1910-673L1910-673Q1873-673 1856.50-712.50Q1840-752 1831-810.50Q1822-869 1808.50-927.50Q1795-986 1765.50-1025.50Q1736-1065 1677-1065L1677-1065Q1629-1065 1569-1054.50Q1509-1044 1438-1033Q1367-1022 1284-1022L1284-1022Q1203-1022 1132.50-1033Q1062-1044 1003-1054.50Q944-1065 895-1065L895-1065Q837-1065 807-1025.50Q777-986 763.50-927.50Q750-869 741-810.50Q732-752 715.50-712.50Q699-673 662-673Z"/>
</svg>