<svg xmlns="http://www.w3.org/2000/svg" viewBox="178.6 -1821.9 2243.8 2243.8" fill="currentColor">
  <path d="M1301-693L1301-693Q1157-693 1038-763.50Q919-834 848-953Q777-1072 777-1217L777-1217Q777-1361 847.50-1480Q918-1599 1037-1669.50Q1156-1740 1301-1740L1301-1740Q1445-1740 1564-1669.50Q1683-1599 1753.50-1480.50Q1824-1362 1824-1217L1824-1217Q1824-1072 1753.50-953Q1683-834 1564-763.50Q1445-693 1301-693ZM1376 340L1226 340L1165-75L1165-854L1245-854L1245-79L1297 260L1305 260L1357-79L1357-854L1437-854L1437-75L1376 340ZM964-1185L964-1185Q984-1185 997.50-1198.50Q1011-1212 1014-1232L1014-1232Q1020-1271 1033-1305.50Q1046-1340 1065-1374L1065-1374Q1074-1390 1074-1402L1074-1402Q1074-1416 1068.50-1426Q1063-1436 1055-1443L1055-1443Q1044-1454 1027-1454L1027-1454Q1004-1454 987-1431L987-1431Q957-1391 941.50-1342Q926-1293 919-1239L919-1239Q916-1216 930-1200.50Q944-1185 964-1185ZM1138-1464L1138-1464Q1154-1464 1169-1473L1169-1473Q1178-1478 1187.50-1483Q1197-1488 1207-1492L1207-1492Q1241-1508 1241-1538L1241-1538Q1241-1560 1228-1573Q1215-1586 1196-1586L1196-1586Q1185-1586 1177-1583L1177-1583Q1163-1577 1148-1569.50Q1133-1562 1119-1554L1119-1554Q1094-1539 1094-1514L1094-1514Q1094-1501 1103-1486L1103-1486Q1115-1464 1138-1464Z"/>
</svg>