<?xml version="1.0" standalone="no"?>
<!DOCTYPE svg PUBLIC "-//W3C//DTD SVG 20010904//EN"
 "http://www.w3.org/TR/2001/REC-SVG-20010904/DTD/svg10.dtd">
<svg version="1.0" xmlns="http://www.w3.org/2000/svg"
 width="322.000000pt" height="315.000000pt" viewBox="0 0 322.000000 315.000000"
 preserveAspectRatio="xMidYMid meet">

<g transform="translate(0.000000,315.000000) scale(0.100000,-0.100000)"
fill="#A855F7" stroke="none">
<path d="M1370 2865 c-364 -62 -647 -235 -863 -527 -231 -313 -320 -676 -256
-1043 41 -234 179 -492 368 -689 360 -374 912 -515 1394 -355 348 116 646 380
815 724 106 217 152 500 118 733 -43 291 -187 573 -401 787 -203 203 -441 325
-720 370 -109 18 -351 18 -455 0z m535 -95 c61 -15 116 -29 124 -31 49 -13
240 -117 312 -170 137 -103 187 -151 278 -271 75 -100 196 -336 216 -423 2 -5
8 -30 15 -55 7 -25 15 -54 18 -65 12 -46 14 -323 2 -390 -14 -79 -47 -220 -60
-250 -33 -81 -95 -204 -129 -254 -23 -33 -41 -63 -41 -66 0 -21 -244 -261
-286 -281 -17 -8 -40 -23 -50 -32 -61 -56 -251 -148 -365 -177 -86 -22 -218
-45 -266 -45 l-43 0 0 588 0 588 35 17 c20 9 39 17 43 17 8 0 35 -23 117 -98
l57 -53 -2 -274 c-1 -302 2 -320 59 -368 63 -53 162 -23 189 57 10 33 10 43
-6 79 -29 65 -55 82 -118 81 l-54 -2 0 127 c0 126 7 201 19 201 3 0 59 -52
124 -115 104 -100 117 -116 108 -134 -17 -30 -13 -67 10 -107 24 -44 36 -56
72 -72 42 -18 80 -15 117 11 44 29 68 73 69 124 1 37 -5 49 -42 88 -40 42 -47
45 -93 45 -28 0 -55 -5 -62 -12 -8 -8 -20 -2 -49 26 -21 21 -92 88 -157 149
-274 257 -316 301 -310 323 6 21 11 21 162 20 151 -1 158 -2 176 -24 10 -13
20 -21 22 -19 2 2 26 -16 52 -41 123 -116 182 -178 182 -195 0 -31 28 -85 52
-101 33 -22 87 -26 126 -10 57 23 82 61 82 121 0 81 -72 141 -155 128 -24 -3
-49 -13 -55 -20 -20 -24 -36 -18 -89 34 -28 27 -54 51 -58 53 -16 6 -53 61
-47 69 3 5 79 9 169 9 l164 0 16 -29 c37 -72 143 -94 205 -42 91 74 69 205
-40 241 -59 20 -114 -1 -155 -57 l-30 -42 -202 0 c-238 -1 -234 -4 -119 107
39 38 82 83 96 100 34 44 51 48 75 19 56 -68 157 -60 203 16 85 136 -98 280
-205 163 -22 -23 -33 -46 -33 -65 0 -22 -6 -31 -22 -37 -13 -3 -41 -27 -63
-52 -22 -25 -60 -66 -85 -91 -25 -25 -67 -72 -94 -104 l-49 -57 -132 0 -133 0
-10 29 c-10 28 -8 33 27 63 21 18 47 40 59 48 12 8 22 19 22 25 0 6 26 33 57
60 31 28 115 106 185 175 71 69 133 126 138 128 6 2 26 -2 45 -8 31 -10 41 -9
80 10 51 25 89 78 89 126 0 45 -47 112 -91 131 -52 21 -99 9 -146 -38 -38 -38
-39 -39 -35 -104 l3 -66 -110 -110 c-61 -60 -116 -109 -122 -109 -15 0 -18
143 -6 263 5 62 9 69 35 83 35 18 68 69 68 105 0 14 -9 44 -20 66 -34 71 -118
94 -185 51 -44 -29 -58 -57 -58 -113 0 -50 24 -93 61 -110 22 -10 22 -14 22
-227 l0 -217 -80 -81 c-44 -44 -83 -80 -88 -80 -4 0 -17 7 -28 15 -10 8 -27
15 -36 15 -17 0 -18 23 -18 345 l0 345 33 22 c71 46 90 139 41 198 -31 37 -73
60 -109 60 -36 0 -101 -44 -121 -82 -32 -62 -2 -159 57 -181 l29 -11 0 -346 0
-346 -44 -13 c-50 -14 -44 -19 -168 107 l-48 47 0 207 0 208 28 17 c36 24 50
41 63 84 23 72 -51 159 -136 159 -83 0 -147 -89 -125 -172 11 -37 60 -88 86
-88 12 0 14 -29 14 -166 0 -97 -4 -164 -9 -162 -5 2 -61 51 -123 110 l-114
106 4 64 c3 59 1 66 -28 100 -44 53 -97 66 -153 39 -51 -25 -80 -70 -80 -125
0 -61 25 -100 79 -126 41 -21 49 -21 85 -10 l40 14 72 -71 c40 -38 117 -112
171 -164 55 -52 108 -104 119 -116 12 -13 27 -23 34 -23 8 0 11 -4 8 -10 -3
-5 2 -10 11 -10 10 0 15 -3 11 -6 -7 -8 59 -74 74 -74 6 0 8 -7 5 -16 -3 -9
-6 -22 -6 -30 0 -11 -25 -14 -131 -14 l-132 0 -125 128 c-69 70 -136 139 -150
155 -14 15 -35 27 -47 27 -17 0 -25 9 -33 38 -26 86 -98 120 -175 83 -51 -25
-67 -53 -67 -118 0 -74 43 -126 116 -137 29 -5 87 22 110 51 19 25 22 25 45
10 13 -9 40 -35 59 -58 19 -23 61 -69 93 -102 31 -33 57 -63 57 -68 0 -5 -91
-9 -202 -9 l-203 0 -15 32 c-9 18 -35 42 -61 57 -42 23 -49 24 -86 13 -54 -16
-89 -51 -103 -101 -28 -104 54 -194 158 -175 33 6 102 66 102 89 0 10 31 13
145 12 103 -2 145 -5 145 -14 0 -14 -37 -58 -94 -114 -31 -31 -45 -39 -61 -33
-50 17 -120 15 -152 -5 -37 -24 -59 -81 -49 -133 8 -42 56 -93 95 -101 43 -9
121 16 121 38 0 7 4 15 9 17 6 2 15 26 22 53 6 28 17 61 25 76 13 26 118 139
129 139 9 0 57 50 48 50 -4 0 -1 5 8 10 17 10 126 17 297 21 l94 2 22 -39 c12
-22 42 -52 68 -69 l47 -30 0 -589 1 -588 -65 4 c-35 2 -67 7 -71 10 -3 4 -6
268 -7 588 -1 574 -1 582 -21 596 -11 8 -25 14 -31 14 -5 0 -109 -97 -229
-215 -120 -118 -222 -215 -227 -215 -4 0 -11 4 -14 10 -8 13 -85 13 -85 -1 0
-5 -5 -7 -11 -4 -5 4 -28 -12 -50 -34 -32 -35 -39 -49 -39 -82 0 -117 121
-189 208 -123 47 36 65 84 57 149 -5 43 -3 54 15 73 11 12 25 22 31 22 6 0 8
4 5 9 -4 5 -2 11 4 13 5 1 67 59 137 128 161 157 162 158 173 139 5 -8 10
-247 10 -531 l0 -518 -21 0 c-63 0 -348 118 -426 176 -17 13 -34 24 -37 24 -3
0 -14 8 -24 17 -11 10 -42 36 -71 58 -69 53 -202 202 -263 295 -52 79 -117
208 -138 275 -7 22 -16 49 -20 60 -12 31 -28 120 -40 232 -24 203 25 462 126
663 20 41 44 83 52 93 8 9 12 17 9 17 -3 0 5 12 18 26 14 15 25 31 25 36 0 5
6 16 13 23 6 8 21 26 32 41 11 14 28 35 37 45 10 11 15 19 11 19 -4 0 10 16
31 35 21 19 42 35 47 35 5 0 9 7 9 17 0 9 3 14 6 10 3 -3 18 5 32 18 67 59 88
75 163 120 43 26 116 62 161 80 46 18 92 36 103 40 25 10 14 7 125 33 123 28
155 30 335 24 118 -4 174 -11 260 -32z m-271 -121 c33 -26 35 -70 4 -99 -29
-27 -54 -25 -83 5 -37 36 -28 86 18 105 31 12 31 12 61 -11z m-327 -165 c15
-24 15 -29 2 -53 -20 -36 -71 -41 -93 -9 -20 29 -20 47 1 70 24 27 69 23 90
-8z m648 18 c6 -4 16 -14 23 -23 29 -38 -35 -98 -77 -72 -9 6 -20 22 -25 36
-8 21 -6 31 9 47 18 20 51 26 70 12z m417 -149 c27 -24 25 -97 -4 -117 -46
-33 -103 -8 -114 49 -12 65 69 112 118 68z m-1470 -10 c22 -20 24 -76 2 -97
-36 -36 -104 -6 -104 46 0 59 60 89 102 51z m1613 -348 c14 -13 25 -31 25 -40
0 -22 -37 -55 -62 -55 -53 0 -79 74 -36 104 31 22 45 20 73 -9z m-1786 -11
c25 -32 26 -47 5 -68 -49 -50 -124 24 -77 76 23 25 48 22 72 -8z m929 -293
c41 -22 54 -89 27 -141 -29 -56 -128 -62 -167 -9 -41 54 -23 141 32 161 24 9
83 3 108 -11z m1051 -21 c10 -5 24 -23 31 -40 11 -28 11 -34 -7 -58 -29 -39
-74 -41 -102 -6 -28 36 -27 68 5 93 29 23 46 26 73 11z m-2155 -16 c21 -20 20
-73 -1 -96 -20 -22 -61 -23 -85 -1 -22 20 -23 70 -1 95 20 22 66 24 87 2z
m1962 -319 c36 -36 31 -86 -11 -97 -62 -16 -110 57 -66 101 28 28 47 26 77 -4z
m-1800 9 c54 -14 45 -96 -11 -102 -34 -4 -55 18 -55 58 0 42 21 56 66 44z
m171 -376 c29 -27 30 -71 1 -98 -29 -27 -54 -25 -83 5 -30 29 -32 68 -5 95 26
26 58 25 87 -2z m1490 0 c28 -26 30 -61 3 -88 -30 -30 -74 -26 -99 9 -27 37
-26 47 4 76 30 31 62 32 92 3z m-330 -134 c12 -3 24 -16 27 -29 8 -31 -9 -75
-29 -75 -8 0 -15 -4 -15 -10 0 -5 -9 -10 -20 -10 -11 0 -20 5 -20 10 0 6 -6
10 -14 10 -17 0 -26 22 -26 60 0 42 39 60 97 44z"/>
<path d="M1125 886 c-52 -23 -70 -52 -70 -113 0 -50 3 -57 37 -89 28 -25 47
-34 72 -34 67 0 107 25 131 82 23 57 -1 117 -62 151 -37 20 -67 21 -108 3z
m93 -78 c40 -33 -15 -102 -64 -80 -29 14 -38 33 -30 66 9 35 58 42 94 14z"/>
</g>
</svg>
