<svg xmlns="http://www.w3.org/2000/svg" viewBox="68 246 2463 2203" fill="white"><path d="M2181 2388L419 2388Q309 2388 241 2330Q173 2272 157 2166L157 2166Q149 2107 142.50 2006.50Q136 1906 133 1785.50Q130 1665 130 1547L130 1547Q130 1374 136.50 1207Q143 1040 156 904L156 904Q167 782 234.50 715.50Q302 649 415 649L415 649L2185 649Q2298 649 2366 715.50Q2434 782 2444 904L2444 904Q2456 1040 2463 1207Q2470 1374 2470 1547L2470 1547Q2470 1665 2466.50 1785.50Q2463 1906 2457 2006.50Q2451 2107 2443 2166L2443 2166Q2429 2272 2360 2330Q2291 2388 2181 2388L2181 2388ZM1125 1613L1125 1783L1475 1783L1475 1613L1125 1613ZM1555 1863L1045 1863L1045 1283L1555 1283L1555 1863ZM419 2308L419 2308L2181 2308Q2341 2308 2364 2154L2364 2154Q2373 2092 2379 1988.50Q2385 1885 2387.50 1767.50Q2390 1650 2390 1547L2390 1547Q2390 1458 2388 1371Q2386 1284 2382 1202L2382 1202Q2342 1307 2246 1387.50Q2150 1468 1972 1517Q1794 1566 1506 1580L1506 1580L1506 1501Q1741 1491 1905 1453.50Q2069 1416 2170 1346Q2271 1276 2317.50 1168.50Q2364 1061 2364 910L2364 910Q2364 820 2315.50 774.50Q2267 729 2185 729L2185 729L415 729Q333 729 284.50 774.50Q236 820 236 910L236 910Q236 1061 282.50 1169Q329 1277 430.50 1347Q532 1417 695.50 1454Q859 1491 1093 1501L1093 1501L1093 1580Q806 1566 628 1517Q450 1468 354 1387.50Q258 1307 218 1202L218 1202Q214 1284 212 1371Q210 1458 210 1547L210 1547Q210 1650 213 1767.50Q216 1885 221.50 1988.50Q227 2092 236 2154L236 2154Q259 2308 419 2308ZM1125 1363L1125 1533L1475 1533L1475 1363L1125 1363ZM1050 673L970 673L970 446L1050 446L1050 673ZM1002 531L1002 531Q979 531 964 514Q949 497 949 470L949 470Q949 401 1049.50 354.50Q1150 308 1301 308L1301 308Q1452 308 1551.50 354.50Q1651 401 1651 470L1651 470Q1651 497 1636 514Q1621 531 1598 531L1598 531Q1584 531 1564 521L1564 521Q1500 489 1442 475.50Q1384 462 1301 462L1301 462Q1216 462 1158.50 475.50Q1101 489 1036 521L1036 521Q1016 531 1002 531ZM1630 673L1550 673L1550 446L1630 446L1630 673Z"/></svg>