<svg xmlns="http://www.w3.org/2000/svg" viewBox="221 246 2157 2203" fill="white"><path d="M2078 2188L522 2188L522 508L2078 508L2078 2188ZM601 1388L601 2109L1999 2109L1999 1388L601 1388ZM601 588L601 1308L1999 1308L1999 588L601 588ZM1194 1596L1194 1692L1406 1692L1406 1596L1194 1596ZM1473 1759L1127 1759L1127 1529L1473 1529L1473 1759ZM1194 796L1194 892L1406 892L1406 796L1194 796ZM1473 959L1127 959L1127 729L1473 729L1473 959ZM2317 2388L283 2388L283 308L2317 308L2317 2388ZM2238 2309L2238 388L362 388L362 2309L2238 2309ZM1127 1860L1127 1860L1127 1826L1473 1826L1473 1860Q1473 1919 1434.50 1957.50Q1396 1996 1337 1996L1337 1996L1263 1996Q1205 1996 1166 1957.50Q1127 1919 1127 1860ZM1127 1060L1127 1060L1127 1026L1473 1026L1473 1060Q1473 1119 1434.50 1157.50Q1396 1196 1337 1196L1337 1196L1263 1196Q1205 1196 1166 1157.50Q1127 1119 1127 1060Z"/></svg>