<svg xmlns="http://www.w3.org/2000/svg" viewBox="248 246 2103 2203" fill="white"><path d="M2290 2388L310 2388L310 308L584 308L584 401Q584 420 569 428L569 428Q519 455 519 515L519 515Q519 557 548.50 586.50Q578 616 618 616L618 616Q659 616 688 586.50Q717 557 717 515L717 515Q717 455 667 428L667 428Q652 420 652 401L652 401L652 308L1948 308L1948 401Q1948 420 1933 428L1933 428Q1883 455 1883 515L1883 515Q1883 557 1912.50 586.50Q1942 616 1982 616L1982 616Q2023 616 2052 586.50Q2081 557 2081 515L2081 515Q2081 455 2031 428L2031 428Q2016 420 2016 401L2016 401L2016 308L2290 308L2290 2388ZM1215 2084L795 2084L795 1988L955 1988L955 1482L824 1482L824 1408Q876 1398 914.50 1384.50Q953 1371 985 1352L985 1352L1073 1352L1073 1988L1215 1988L1215 2084ZM390 1138L390 2308L2210 2308L2210 1138L390 1138ZM1623 2084L1504 2084Q1510 1950 1530 1844Q1550 1738 1592 1643Q1634 1548 1704 1450L1704 1450L1361 1450L1361 1352L1834 1352L1834 1422Q1748 1529 1705 1626Q1662 1723 1645.50 1832Q1629 1941 1623 2084L1623 2084ZM863 900L863 900Q921 900 947 864Q973 828 973 777L973 777L973 515L912 515L912 772Q912 813 898 830.50Q884 848 856 848L856 848Q819 848 794 806L794 806L752 837Q788 900 863 900ZM1145 900L1145 900Q1174 900 1196.50 886.50Q1219 873 1238 851L1238 851L1240 851L1245 893L1295 893L1295 607L1235 607L1235 806Q1201 848 1167 848L1167 848Q1120 848 1120 781L1120 781L1120 607L1060 607L1060 788Q1060 842 1080 871Q1100 900 1145 900ZM1443 900L1443 900Q1464 900 1476 895L1476 895L1469 850Q1463 851 1459 851L1459 851Q1444 851 1444 829L1444 829L1444 485L1384 485L1384 826Q1384 860 1397.50 880Q1411 900 1443 900ZM1554 1008L1554 1008Q1599 1008 1624.50 981Q1650 954 1666 908L1666 908L1771 607L1712 607L1667 753Q1661 772 1655.50 792Q1650 812 1645 833L1645 833L1642 833Q1636 812 1629.50 792Q1623 772 1616 753L1616 753L1565 607L1503 607L1616 890L1610 909Q1595 959 1551 959L1551 959Q1538 959 1530 956L1530 956L1518 1002Q1533 1008 1554 1008Z"/></svg>