<svg xmlns="http://www.w3.org/2000/svg" viewBox="198 246 2203 2203" fill="white"><path d="M2340 2388L260 2388L260 308L2340 308L2340 2388ZM865 2359L570 2359L570 1186L865 1186L865 2359ZM2318 2050L282 2050L282 1997L2318 1997L2318 2050ZM1448 2359L1153 2359L1153 1516L1448 1516L1448 2359ZM2318 1712L282 1712L282 1659L2318 1659L2318 1712ZM313 361L313 2335L2287 2335L2287 361L313 361ZM2318 1374L282 1374L282 1322L2318 1322L2318 1374ZM2318 1037L282 1037L282 984L2318 984L2318 1037ZM2030 2359L1735 2359L1735 662L2030 662L2030 2359ZM2319 699L283 699L283 646L2319 646L2319 699Z"/></svg>