<svg xmlns="http://www.w3.org/2000/svg" viewBox="198 246 2203 2203" fill="white"><path d="M1301 2388L1301 2388Q1087 2388 898.50 2308Q710 2228 566.50 2086Q423 1944 341.50 1755Q260 1566 260 1348L260 1348Q260 1134 341.50 945.50Q423 757 566.50 613.50Q710 470 898.50 389Q1087 308 1301 308L1301 308Q1515 308 1703 389Q1891 470 2034.50 613.50Q2178 757 2259 945.50Q2340 1134 2340 1348L2340 1348Q2340 1566 2259 1755Q2178 1944 2034.50 2086Q1891 2228 1703 2308Q1515 2388 1301 2388ZM1412 1719L1412 1719Q1396 1719 1396 1698L1396 1698Q1396 1653 1433 1651L1433 1651Q1458 1650 1458 1670L1458 1670Q1458 1689 1445 1704Q1432 1719 1412 1719ZM1635 2063L1635 2063Q1650 2063 1665 2039.50Q1680 2016 1693.50 1985.50Q1707 1955 1717 1936L1717 1936Q1736 1899 1745 1870.50Q1754 1842 1754 1825L1754 1825Q1754 1811 1745 1811L1745 1811Q1735 1811 1720.50 1830.50Q1706 1850 1688 1871L1688 1871Q1669 1893 1646 1908Q1623 1923 1623 1934L1623 1934Q1623 1962 1622 1992.50Q1621 2023 1621 2040L1621 2040Q1621 2063 1635 2063ZM1300 2205L1300 2205Q1335 2205 1351 2198.50Q1367 2192 1386 2178L1386 2178Q1409 2161 1417.50 2147Q1426 2133 1435 2126L1435 2126Q1470 2097 1484.50 2077Q1499 2057 1499 2018L1499 2018Q1499 2003 1521.50 1983Q1544 1963 1566.50 1943Q1589 1923 1589 1907L1589 1907Q1589 1901 1588 1874Q1587 1847 1586 1813.50Q1585 1780 1585 1754L1585 1754Q1585 1707 1612.50 1670.50Q1640 1634 1676 1598Q1712 1562 1739.50 1519Q1767 1476 1767 1416L1767 1416Q1767 1401 1762.50 1388Q1758 1375 1750 1375L1750 1375Q1734 1375 1707 1396Q1680 1417 1633 1417L1633 1417Q1615 1417 1612 1403.50Q1609 1390 1597 1374L1597 1374Q1587 1361 1567.50 1351Q1548 1341 1537 1330L1537 1330Q1533 1326 1531 1316Q1529 1306 1521 1296L1521 1296Q1517 1290 1508 1285.50Q1499 1281 1494 1274L1494 1274Q1486 1260 1483.50 1242Q1481 1224 1467 1202L1467 1202Q1463 1195 1452.50 1194Q1442 1193 1439 1187L1439 1187Q1436 1181 1436.50 1170.50Q1437 1160 1435 1155L1435 1155Q1423 1126 1413.50 1113Q1404 1100 1404 1095L1404 1095Q1404 1086 1411 1086L1411 1086Q1416 1086 1420 1093Q1424 1100 1432 1108L1432 1108Q1437 1113 1442.50 1118.50Q1448 1124 1452 1131L1452 1131Q1457 1138 1459 1145.50Q1461 1153 1467 1161L1467 1161Q1472 1167 1481 1172.50Q1490 1178 1494 1185L1494 1185Q1503 1198 1504.50 1207Q1506 1216 1525 1242L1525 1242Q1545 1269 1557 1273.50Q1569 1278 1588 1307L1588 1307Q1600 1325 1608.50 1353Q1617 1381 1634 1381L1634 1381Q1644 1381 1655 1375.50Q1666 1370 1687 1358L1687 1358Q1701 1350 1720.50 1341.50Q1740 1333 1754 1320L1754 1320Q1761 1314 1768 1303.50Q1775 1293 1785 1285L1785 1285Q1794 1278 1806 1274Q1818 1270 1822 1264L1822 1264Q1840 1240 1848 1216Q1856 1192 1856 1162L1856 1162Q1856 1144 1843.50 1135.50Q1831 1127 1817 1117L1817 1117Q1807 1110 1798 1100.50Q1789 1091 1781 1091L1781 1091Q1767 1091 1758.50 1110.50Q1750 1130 1735 1130L1735 1130Q1723 1130 1695 1107L1695 1107Q1690 1102 1685.50 1092Q1681 1082 1676 1077L1676 1077Q1662 1063 1649 1055.50Q1636 1048 1636 1035L1636 1035Q1636 1024 1649 1024L1649 1024Q1666 1024 1684 1049.50Q1702 1075 1731 1075L1731 1075Q1745 1075 1753.50 1066Q1762 1057 1778 1057L1778 1057Q1792 1057 1799.50 1073.50Q1807 1090 1835 1090L1835 1090Q1872 1090 1885.50 1082Q1899 1074 1919 1074L1919 1074Q1934 1074 1950.50 1095.50Q1967 1117 1987 1139Q2007 1161 2029 1161L2029 1161Q2034 1181 2051 1210Q2068 1239 2087 1277L2087 1277Q2099 1300 2109 1321Q2119 1342 2132 1342L2132 1342Q2146 1342 2151.50 1316.50Q2157 1291 2157 1216L2157 1216Q2157 1151 2159 1086Q2161 1021 2166 939L2166 939Q2124 840 2044.50 745Q1965 650 1862 572.50Q1759 495 1644.50 448Q1530 401 1418 397L1418 397Q1401 411 1395 426Q1389 441 1389 449L1389 449Q1389 460 1400 460Q1411 460 1422 459Q1433 458 1433 466L1433 466Q1433 482 1406.50 488Q1380 494 1366 494L1366 494Q1351 494 1331.50 469Q1312 444 1280 444L1280 444Q1243 444 1201 467.50Q1159 491 1127 523L1127 523Q1114 536 1093.50 544Q1073 552 1057.50 563Q1042 574 1042 598L1042 598Q1042 611 1049 617Q1056 623 1063 623L1063 623Q1071 623 1078.50 616.50Q1086 610 1089 610L1089 610Q1094 610 1095 628Q1096 646 1115 646L1115 646Q1126 646 1134.50 638Q1143 630 1150 623L1150 623Q1159 614 1167 606.50Q1175 599 1175 595L1175 595Q1175 589 1174 584Q1173 579 1173 572L1173 572Q1173 565 1188 548Q1203 531 1213 531L1213 531Q1219 531 1219 536L1219 536Q1219 543 1208 557.50Q1197 572 1197 579L1197 579Q1197 585 1206 585L1206 585Q1214 585 1229 579.50Q1244 574 1255 574L1255 574Q1268 574 1268 582L1268 582Q1268 589 1250 595.50Q1232 602 1210 602L1210 602Q1206 602 1189 621L1189 621Q1183 628 1170.50 634.50Q1158 641 1150 649L1150 649Q1141 658 1130.50 665.50Q1120 673 1109 673L1109 673Q1096 673 1091 665.50Q1086 658 1079 651Q1072 644 1054 644L1054 644Q1044 644 1040.50 651.50Q1037 659 1026 666L1026 666Q1018 671 1005.50 673.50Q993 676 985 683L985 683Q966 699 953 711.50Q940 724 927 724L927 724Q920 724 914 722Q908 720 905 720L905 720Q897 720 887 727.50Q877 735 869 741L869 741Q865 745 861 749.50Q857 754 857 761L857 761Q857 768 861 773Q865 778 880 792L880 792Q874 794 867 810L867 810Q862 811 854 811Q846 811 840 811L840 811Q821 811 811 808Q801 805 799 805L799 805Q783 805 763 862L763 862Q759 872 752.50 881.50Q746 891 746 899L746 899Q746 918 758.50 934.50Q771 951 781 951L781 951Q814 951 842 932L842 932Q853 924 860.50 909Q868 894 879 887L879 887Q903 871 917.50 860.50Q932 850 932 841L932 841Q961 841 976 825.50Q991 810 998 810L998 810Q1003 810 1005.50 819Q1008 828 1018 842L1018 842Q1025 852 1034.50 859.50Q1044 867 1052 875L1052 875Q1064 887 1075.50 899Q1087 911 1094 911L1094 911Q1105 911 1108 901Q1111 891 1111 881L1111 881Q1111 870 1087.50 847.50Q1064 825 1064 807L1064 807Q1064 797 1068 789L1068 789Q1070 791 1076.50 798.50Q1083 806 1095 814L1095 814Q1105 821 1115.50 827Q1126 833 1129 844L1129 844Q1136 868 1148 886.50Q1160 905 1163 922L1163 922Q1165 933 1173.50 942Q1182 951 1186 951L1186 951Q1198 951 1205 941Q1212 931 1212 921L1212 921Q1212 910 1207.50 906Q1203 902 1203 883L1203 883Q1203 874 1211 870.50Q1219 867 1241 867L1241 867Q1255 867 1266.50 860Q1278 853 1278 843L1278 843Q1278 819 1293.50 798Q1309 777 1329 777L1329 777Q1338 777 1345.50 783Q1353 789 1363 789L1363 789Q1370 789 1384.50 781.50Q1399 774 1409 774L1409 774Q1422 774 1433 786Q1444 798 1457 806L1457 806Q1468 813 1477 814Q1486 815 1486 817L1486 817Q1486 831 1463.50 839Q1441 847 1411 847L1411 847Q1400 847 1392 840.50Q1384 834 1373 834L1373 834Q1361 834 1351 838.50Q1341 843 1328 846L1328 846Q1301 852 1277 864.50Q1253 877 1253 893L1253 893Q1253 906 1267 926.50Q1281 947 1309 947L1309 947Q1315 947 1320 945Q1325 943 1332 941L1332 941Q1337 939 1344 939.50Q1351 940 1356 940L1356 940Q1370 940 1379.50 932Q1389 924 1399 924L1399 924Q1404 924 1406 930.50Q1408 937 1408 951L1408 951Q1408 998 1405 1011.50Q1402 1025 1385 1025L1385 1025Q1369 1025 1367 1036Q1365 1047 1351 1047L1351 1047Q1309 1047 1263 1031Q1217 1015 1170 1015L1170 1015Q1148 1015 1142.50 1023.50Q1137 1032 1134.50 1040.50Q1132 1049 1120 1049L1120 1049Q1099 1049 1083 1035Q1067 1021 1044 1008L1044 1008Q1034 1003 1018.50 999.50Q1003 996 1003 988L1003 988Q1003 980 1008.50 973.50Q1014 967 1014 960L1014 960Q1014 949 994.50 940.50Q975 932 960 932L960 932Q947 932 917 936Q887 940 873 940L873 940Q853 940 840 955Q827 970 812 970L812 970Q799 970 780.50 968Q762 966 746 966L746 966Q724 966 702.50 988.50Q681 1011 676 1035L676 1035Q671 1058 657.50 1069.50Q644 1081 621 1090L621 1090Q614 1093 604.50 1112Q595 1131 585 1146L585 1146Q575 1161 565 1169.50Q555 1178 555 1194L555 1194Q555 1258 537 1303.50Q519 1349 519 1399L519 1399Q519 1447 551 1459L551 1459Q560 1462 579 1491.50Q598 1521 621 1549.50Q644 1578 664 1578L664 1578Q674 1578 683 1572Q692 1566 699 1566L699 1566Q711 1566 720 1578Q729 1590 750 1590L750 1590Q773 1590 795 1574.50Q817 1559 833 1559L833 1559Q845 1559 851 1568.50Q857 1578 867.50 1587.50Q878 1597 901 1597L901 1597Q946 1597 946 1632L946 1632Q946 1645 944.50 1657Q943 1669 943 1686L943 1686Q943 1720 968.50 1745Q994 1770 1021 1802.50Q1048 1835 1053 1892L1053 1892Q1042 1902 1034.50 1918Q1027 1934 1027 1960L1027 1960Q1027 1971 1045 2001Q1063 2031 1092 2062L1092 2062Q1105 2075 1116 2089.50Q1127 2104 1140 2120L1140 2120Q1148 2130 1160 2136.50Q1172 2143 1180 2153L1180 2153Q1206 2183 1230.50 2194Q1255 2205 1300 2205ZM985 907L985 907Q993 907 1000 893Q1007 879 1007 860L1007 860Q1007 841 996 841L996 841Q972 841 972 881L972 881Q972 907 985 907ZM928 703L928 703Q942 703 951.50 686.50Q961 670 961 625L961 625Q961 613 958 603Q955 593 943 593L943 593Q918 593 918 636L918 636Q918 643 911.50 646Q905 649 888 649L888 649Q876 649 860 661Q844 673 844 687L844 687Q844 696 859.50 699.50Q875 703 928 703ZM1368 978L1368 978Q1386 978 1386 963L1386 963Q1386 949 1368 949L1368 949Q1350 949 1350 963L1350 963Q1350 978 1368 978ZM839 571L839 571Q850 571 866.50 563.50Q883 556 902 549L902 549Q931 538 965.50 524Q1000 510 1034 496L1034 496Q1085 475 1131 462Q1177 449 1177 436L1177 436Q1177 425 1157 421Q1137 417 1111 415Q1085 413 1067 410L1067 410L902 465Q866 492 842.50 519Q819 546 819 560L819 560Q819 571 839 571ZM1661 916L1661 916Q1626 916 1612 901Q1598 886 1591.50 864.50Q1585 843 1571 825L1571 825Q1557 805 1541.50 799.50Q1526 794 1526 767L1526 767Q1526 747 1537.50 735.50Q1549 724 1563 724L1563 724Q1575 724 1584.50 732.50Q1594 741 1594 752L1594 752Q1594 759 1592.50 764Q1591 769 1591 772L1591 772Q1591 782 1617 799.50Q1643 817 1669 840Q1695 863 1695 891L1695 891Q1695 901 1688 908.50Q1681 916 1661 916Z"/></svg>