<svg xmlns="http://www.w3.org/2000/svg" viewBox="715 246 1170 2203" fill="white"><path d="M1301 1355L1301 1355Q1157 1355 1038 1284.50Q919 1214 848 1095Q777 976 777 831L777 831Q777 687 847.50 568Q918 449 1037 378.50Q1156 308 1301 308L1301 308Q1445 308 1564 378.50Q1683 449 1753.50 567.50Q1824 686 1824 831L1824 831Q1824 976 1753.50 1095Q1683 1214 1564 1284.50Q1445 1355 1301 1355ZM1376 2388L1226 2388L1165 1973L1165 1194L1245 1194L1245 1969L1297 2308L1305 2308L1357 1969L1357 1194L1437 1194L1437 1973L1376 2388ZM964 863L964 863Q984 863 997.50 849.50Q1011 836 1014 816L1014 816Q1020 777 1033 742.50Q1046 708 1065 674L1065 674Q1074 658 1074 646L1074 646Q1074 632 1068.50 622Q1063 612 1055 605L1055 605Q1044 594 1027 594L1027 594Q1004 594 987 617L987 617Q957 657 941.50 706Q926 755 919 809L919 809Q916 832 930 847.50Q944 863 964 863ZM1138 584L1138 584Q1154 584 1169 575L1169 575Q1178 570 1187.50 565Q1197 560 1207 556L1207 556Q1241 540 1241 510L1241 510Q1241 488 1228 475Q1215 462 1196 462L1196 462Q1185 462 1177 465L1177 465Q1163 471 1148 478.50Q1133 486 1119 494L1119 494Q1094 509 1094 534L1094 534Q1094 547 1103 562L1103 562Q1115 584 1138 584Z"/></svg>