<svg xmlns="http://www.w3.org/2000/svg" viewBox="113 246 2373 2203" fill="white"><path d="M631 2388L631 2388Q567 2388 512 2353.50Q457 2319 424 2262.50Q391 2206 391 2139L391 2139Q391 2071 420.50 2014.50Q450 1958 519 1896L519 1896L1585 927Q1546 841 1546 747L1546 747Q1546 625 1605 525.50Q1664 426 1763.50 367Q1863 308 1983 308L1983 308Q2088 308 2153.50 344.50Q2219 381 2240 456L2240 456L1981 606Q1979 615 1979 629L1979 629Q1979 689 2012.50 740Q2046 791 2102 816L2102 816L2408 640Q2425 703 2425 760L2425 760Q2425 875 2368 971.50Q2311 1068 2214.50 1125.50Q2118 1183 1998 1183L1998 1183Q1918 1183 1844 1159L1844 1159L915 2236Q879 2278 842 2312.50Q805 2347 756 2367.50Q707 2388 631 2388ZM678 2189L678 2189Q646 2189 622.50 2165.50Q599 2142 599 2110L599 2110Q599 2078 622.50 2054.50Q646 2031 678 2031L678 2031Q710 2031 733.50 2054.50Q757 2078 757 2110L757 2110Q757 2142 733.50 2165.50Q710 2189 678 2189ZM2081 2388L2081 2388Q2013 2388 1972 2337L1972 2337L1386 1631L1438 1569L2034 2285Q2052 2308 2081 2308L2081 2308Q2105 2308 2123 2291L2123 2291L2235 2195Q2257 2176 2257 2148L2257 2148Q2257 2123 2242 2108L2242 2108L1576 1406L1628 1344L2300 2052Q2337 2092 2337 2148L2337 2148Q2337 2209 2286 2255L2286 2255L2175 2353Q2135 2388 2081 2388ZM631 2308L631 2308Q689 2308 724.50 2294.50Q760 2281 789.50 2253.50Q819 2226 855 2184L855 2184L1820 1064Q1867 1085 1907.50 1094Q1948 1103 1998 1103L1998 1103Q2094 1103 2170 1059.50Q2246 1016 2291.50 941Q2337 866 2340 772L2340 772L2110 904Q2016 878 1957.50 801Q1899 724 1899 629L1899 629Q1899 595 1909 555L1909 555L2120 433Q2078 388 1983 388L1983 388Q1885 388 1803.50 436.50Q1722 485 1674 566.50Q1626 648 1626 747L1626 747Q1626 855 1687 944L1687 944L573 1956Q516 2008 493.50 2048.50Q471 2089 471 2139L471 2139Q471 2206 519 2257Q567 2308 631 2308ZM1227 1312L1169 1367L907 1052L1146 837L1422 1126L1364 1182L1133 939L1008 1050L1227 1312ZM504 1462L504 1462Q479 1462 452 1451Q425 1440 394 1421L394 1421Q343 1389 289.50 1328Q236 1267 200 1193L200 1193Q188 1168 181.50 1146.50Q175 1125 175 1105L175 1105Q175 1081 184 1060.50Q193 1040 215 1022L215 1022L330 929Q379 889 418 889L418 889Q435 889 452.50 894.50Q470 900 492 912L492 912L513 924Q526 931 536 931L536 931Q546 931 558 919L558 919L569 908Q586 891 586 877L586 877Q586 870 584 860.50Q582 851 578 838L578 838L573 818Q567 792 567 780L567 780Q567 739 591 701.50Q615 664 660 626L660 626L832 480Q913 411 983.50 374Q1054 337 1140.50 322.50Q1227 308 1353 308L1353 308Q1430 308 1464 331Q1498 354 1498 407L1498 407Q1498 451 1460.50 472.50Q1423 494 1334 519L1334 519Q1282 533 1236 553Q1190 573 1161.50 593Q1133 613 1133 629L1133 629Q1133 649 1161 670L1161 670Q1193 694 1211.50 723Q1230 752 1230 786L1230 786Q1230 857 1165 914L1165 914L964 1088Q939 1109 918.50 1120Q898 1131 875 1131L875 1131Q859 1131 832 1122L832 1122L803 1112Q767 1099 758 1099L758 1099Q747 1099 732 1111L732 1111L717 1124Q706 1134 706 1147L706 1147Q706 1151 707.50 1156Q709 1161 711 1166L711 1166L720 1188Q739 1234 735.50 1270.50Q732 1307 695 1337L695 1337L581 1430Q542 1462 504 1462ZM498 1382L498 1382Q512 1382 527 1370L527 1370L630 1288Q653 1270 649.50 1245.50Q646 1221 631 1182L631 1182L623 1161Q615 1139 621.50 1119.50Q628 1100 646 1085L646 1085L683 1053Q701 1038 718.50 1031Q736 1024 757 1024L757 1024Q771 1024 787 1028Q803 1032 823 1038L823 1038L852 1047Q863 1050 871 1050L871 1050Q886 1050 912 1028L912 1028L1115 854Q1150 823 1150 786L1150 786Q1150 760 1117 738L1117 738Q1053 695 1053 623L1053 623Q1053 566 1125 523.50Q1197 481 1314 449L1314 449Q1380 431 1399 422Q1418 413 1418 400L1418 400Q1418 389 1405.50 385Q1393 381 1353 381L1353 381Q1237 381 1160 394.50Q1083 408 1020 443Q957 478 883 541L883 541L711 688Q681 714 664 735Q647 756 647 785L647 785Q647 790 648 796.50Q649 803 650 808L650 808L655 828Q660 849 662.50 864.50Q665 880 665 892L665 892Q665 924 633 953L633 953L595 988Q571 1010 548.50 1016.50Q526 1023 503 1009L503 1009L482 996Q462 983 449 978.50Q436 974 422 974L422 974Q402 974 384 989L384 989L269 1082Q256 1094 256 1111L256 1111Q256 1129 270 1154L270 1154Q309 1223 352.50 1275Q396 1327 436 1353L436 1353Q456 1366 471 1374Q486 1382 498 1382Z"/></svg>