<svg xmlns="http://www.w3.org/2000/svg" viewBox="202 246 2195 2203" fill="white"><path d="M2336 2388L264 2388L264 2193L344 2193L344 2048L401 2048Q401 1993 409.50 1955.50Q418 1918 437 1893L437 1893L437 1392Q415 1363 407.50 1320.50Q400 1278 400 1182L400 1182L400 1092L480 1092L480 1175L2120 1175L2120 1092L2200 1092L2200 1182Q2200 1278 2192.50 1320.50Q2185 1363 2163 1392L2163 1392L2163 1893Q2183 1918 2191 1955.50Q2199 1993 2199 2048L2199 2048L2256 2048L2256 2193L2336 2193L2336 2388ZM483 2048L483 2048L804 2048Q804 2007 799.50 1981Q795 1955 785 1936L785 1936L502 1936Q492 1955 487.50 1981Q483 2007 483 2048ZM517 1422L517 1866L767 1866L767 1422L517 1422ZM344 2243L344 2310L2256 2310L2256 2243L344 2243ZM921 2048L921 2048L1242 2048Q1242 2007 1237.50 1981Q1233 1955 1223 1936L1223 1936L940 1936Q930 1955 925.50 1981Q921 2007 921 2048ZM424 2126L424 2193L2176 2193L2176 2126L424 2126ZM501 1352L501 1352L785 1352Q795 1332 799 1307Q803 1282 803 1245L803 1245L482 1245Q482 1282 486.50 1307Q491 1332 501 1352ZM957 1422L957 1866L1205 1866L1205 1422L957 1422ZM1358 2048L1358 2048L1679 2048Q1679 2007 1674.50 1981Q1670 1955 1660 1936L1660 1936L1377 1936Q1367 1955 1362.50 1981Q1358 2007 1358 2048ZM480 960L480 1040L625 1040L625 960L480 960ZM678 960L678 1040L812 1040L812 960L678 960ZM939 1352L939 1352L1223 1352Q1233 1332 1237 1307Q1241 1282 1241 1245L1241 1245L920 1245Q920 1282 924.50 1307Q929 1332 939 1352ZM1395 1422L1395 1866L1643 1866L1643 1422L1395 1422ZM880 960L880 1040L1014 1040L1014 960L880 960ZM1796 2048L1796 2048L2117 2048Q2117 2007 2112.50 1981Q2108 1955 2098 1936L2098 1936L1815 1936Q1805 1955 1800.50 1981Q1796 2007 1796 2048ZM1377 1352L1377 1352L1661 1352Q1671 1332 1675.50 1307Q1680 1282 1680 1245L1680 1245L1359 1245Q1359 1282 1363 1307Q1367 1332 1377 1352ZM1080 960L1080 1040L1520 1040L1520 960L1080 960ZM1833 1422L1833 1866L2083 1866L2083 1422L1833 1422ZM2200 1107L400 1107L400 960L323 960L323 829L1300 308L2277 829L2277 960L2200 960L2200 1107ZM1741 773L859 773L1300 538L1741 773ZM1586 960L1586 1040L1720 1040L1720 960L1586 960ZM1815 1352L1815 1352L2099 1352Q2109 1332 2113.50 1307Q2118 1282 2118 1245L2118 1245L1797 1245Q1797 1282 1801 1307Q1805 1332 1815 1352ZM432 861L432 879L2168 879L2168 861L1300 399L432 861ZM1788 960L1788 1040L1922 1040L1922 960L1788 960ZM1975 960L1975 1040L2120 1040L2120 960L1975 960Z"/></svg>