<svg xmlns="http://www.w3.org/2000/svg" viewBox="70 446 2459 1803" fill="white"><path d="M1683 2188L1683 2188Q1475 2188 1323 2048L1323 2048Q1219 2097 1095 2097L1095 2097Q995 2097 904 2063.50Q813 2030 750 1969L750 1969Q666 1997 575 1997L575 1997Q453 1997 352 1950.50Q251 1904 191.50 1825Q132 1746 132 1650L132 1650Q132 1560 183 1485Q234 1410 317 1362Q400 1314 496 1306L496 1306Q502 1201 557 1116Q612 1031 700 980.50Q788 930 894 930L894 930Q911 930 928.50 931.50Q946 933 962 936L962 936Q1006 808 1094.50 712Q1183 616 1302.50 562Q1422 508 1557 508L1557 508Q1686 508 1799.50 556.50Q1913 605 1999 691Q2085 777 2133.50 890.50Q2182 1004 2182 1133L2182 1133Q2182 1168 2178.50 1203Q2175 1238 2167 1272L2167 1272Q2253 1287 2321 1338.50Q2389 1390 2428.50 1466Q2468 1542 2468 1632L2468 1632Q2468 1732 2418.50 1815Q2369 1898 2286.50 1947.50Q2204 1997 2103 1997L2103 1997L2091 1997Q2016 2088 1909 2138Q1802 2188 1683 2188ZM1683 2108L1683 2108Q1795 2108 1893 2057Q1991 2006 2055 1914L2055 1914Q2071 1916 2081 1916.50Q2091 1917 2103 1917L2103 1917Q2182 1917 2246.50 1878.50Q2311 1840 2349.50 1775Q2388 1710 2388 1632L2388 1632Q2388 1546 2343.50 1478Q2299 1410 2228 1370.50Q2157 1331 2077 1331L2077 1331Q2086 1293 2094 1241.50Q2102 1190 2102 1133L2102 1133Q2102 1020 2059.50 921.50Q2017 823 1942 748Q1867 673 1768.50 630.50Q1670 588 1557 588L1557 588Q1440 588 1336 634.50Q1232 681 1154.50 764Q1077 847 1039 957L1039 957Q1151 1001 1222 1100.50Q1293 1200 1293 1319L1293 1319L1213 1319Q1213 1236 1170 1165.50Q1127 1095 1054.50 1052.50Q982 1010 894 1010L894 1010Q806 1010 733.50 1053Q661 1096 618 1168.50Q575 1241 575 1329L575 1329L575 1380Q464 1388 382.50 1426.50Q301 1465 256.50 1523.50Q212 1582 212 1650L212 1650Q212 1723 261 1783.50Q310 1844 392.50 1880.50Q475 1917 575 1917L575 1917Q682 1917 773 1873L773 1873Q822 1940 907.50 1978.50Q993 2017 1095 2017L1095 2017Q1235 2017 1337 1948L1337 1948Q1475 2108 1683 2108Z"/></svg>