<svg xmlns="http://www.w3.org/2000/svg" viewBox="198 246 2204 2203" fill="white"><path d="M1479 2388L1122 2388L1088 2048Q1057 2039 1023.50 2025.50Q990 2012 954 1994L954 1994L690 2209L438 1957L653 1692Q618 1623 600 1559L600 1559L260 1525L260 1170L601 1136Q620 1066 654 1005L654 1005L438 739L690 487L955 702Q1012 669 1088 647L1088 647L1122 308L1479 308L1513 647Q1586 668 1646 702L1646 702L1910 487L2163 739L1946 1005Q1980 1065 2000 1136L2000 1136L2341 1170L2341 1525L2001 1559Q1981 1624 1948 1692L1948 1692L2163 1957L1910 2209L1646 1994Q1611 2012 1578 2025.50Q1545 2039 1513 2048L1513 2048L1479 2388ZM1161 1985L1194 2308L1407 2308L1439 1985Q1554 1960 1653 1895L1653 1895L1906 2101L2055 1953L1849 1700Q1915 1590 1936 1486L1936 1486L2261 1453L2261 1242L1937 1210Q1924 1150 1901.50 1097Q1879 1044 1848 998L1848 998L2055 743L1906 595L1653 801Q1549 733 1439 712L1439 712L1407 388L1194 388L1161 712Q1052 733 947 801L947 801L694 595L546 743L753 998Q722 1044 699.50 1097Q677 1150 663 1210L663 1210L340 1242L340 1453L665 1486Q684 1589 751 1700L751 1700L546 1953L694 2101L947 1895Q1045 1959 1161 1985L1161 1985ZM1300 1628L1300 1628Q1223 1628 1159.50 1590.50Q1096 1553 1058.50 1489.50Q1021 1426 1021 1349L1021 1349Q1021 1271 1058.50 1207.50Q1096 1144 1159.50 1106.50Q1223 1069 1300 1069L1300 1069Q1378 1069 1441.50 1106.50Q1505 1144 1542.50 1207.50Q1580 1271 1580 1349L1580 1349Q1580 1426 1542.50 1489.50Q1505 1553 1441.50 1590.50Q1378 1628 1300 1628ZM1300 1553L1300 1553Q1386 1553 1445.50 1493.50Q1505 1434 1505 1349L1505 1349Q1505 1263 1445.50 1203.50Q1386 1144 1300 1144L1300 1144Q1215 1144 1155.50 1203.50Q1096 1263 1096 1349L1096 1349Q1096 1434 1155.50 1493.50Q1215 1553 1300 1553ZM1300 1776L1300 1776Q1418 1776 1514.50 1718Q1611 1660 1669 1563Q1727 1466 1727 1349L1727 1349Q1727 1231 1669 1134.50Q1611 1038 1514.50 980Q1418 922 1300 922L1300 922Q1183 922 1086 980Q989 1038 931 1134.50Q873 1231 873 1349L873 1349Q873 1466 931 1563Q989 1660 1086 1718Q1183 1776 1300 1776ZM1300 1846L1300 1846Q1163 1846 1050 1779Q937 1712 870 1599Q803 1486 803 1349L803 1349Q803 1212 870 1099Q937 986 1050 919Q1163 852 1300 852L1300 852Q1437 852 1550 919Q1663 986 1730 1098.50Q1797 1211 1797 1349L1797 1349Q1797 1486 1730 1599Q1663 1712 1550.50 1779Q1438 1846 1300 1846Z"/></svg>