<svg xmlns="http://www.w3.org/2000/svg" viewBox="33 246 2533 2203" fill="white"><path d="M2505 1182L1299 1865L95 1180L95 1005L1300 308L2505 1005L2505 1182ZM615 2388L615 2388Q588 2388 568.50 2366Q549 2344 544 2310L544 2310Q539 2338 523 2357.50Q507 2377 490 2377L490 2377Q455 2377 455 2324L455 2324Q455 2266 465.50 2185.50Q476 2105 493 2015.50Q510 1926 530.50 1839Q551 1752 572 1682L572 1682Q549 1665 534.50 1642Q520 1619 520 1594L520 1594Q520 1565 533.50 1540.50Q547 1516 572 1505L572 1505L572 1384Q572 1319 587 1287.50Q602 1256 645 1228L645 1228L1183 889L1257 940L732 1276Q691 1302 681.50 1326.50Q672 1351 667 1407L667 1407L659 1505Q685 1515 698.50 1539.50Q712 1564 712 1594L712 1594Q712 1622 698 1647Q684 1672 658 1681L658 1681Q679 1752 700 1839Q721 1926 738.50 2015.50Q756 2105 766.50 2185Q777 2265 777 2324L777 2324Q777 2377 741 2377L741 2377Q724 2377 708 2357.50Q692 2338 687 2310L687 2310Q683 2344 663 2366Q643 2388 615 2388ZM1309 2069L1309 2069Q1122 2069 939 1998.50Q756 1928 613 1801L613 1801L664 1741Q796 1858 966 1923Q1136 1988 1309 1988L1309 1988Q1486 1988 1644 1930Q1802 1872 1922 1763L1922 1763L1922 1472L2002 1424L2002 1800Q1910 1887 1799.50 1947Q1689 2007 1565.50 2038Q1442 2069 1309 2069ZM145 1140L1297 1797L2425 1158L2425 1112L1297 1751L145 1094L145 1140ZM182 1046L1297 1682L2417 1048L1299 400L182 1046ZM1224 995L1224 995Q1184 995 1154.50 969.50Q1125 944 1125 910L1125 910Q1125 880 1150 854.50Q1175 829 1210.50 813.50Q1246 798 1279 798L1279 798Q1321 798 1349 822Q1377 846 1377 880L1377 880Q1377 910 1352.50 936.50Q1328 963 1293 979Q1258 995 1224 995Z"/></svg>