<svg xmlns="http://www.w3.org/2000/svg" viewBox="108 246 2383 2203" fill="white"><path d="M1300 2388L1300 2388Q1695 2085 1944.50 1830Q2194 1575 2312 1350Q2430 1125 2430 912L2430 912Q2430 786 2387.50 676.50Q2345 567 2268.50 484Q2192 401 2089.50 354.50Q1987 308 1868 308L1868 308Q1747 308 1634 354.50Q1521 401 1433.50 481.50Q1346 562 1300 665L1300 665Q1255 562 1167 481.50Q1079 401 966 354.50Q853 308 732 308L732 308Q613 308 510.50 354.50Q408 401 331.50 484Q255 567 212.50 676.50Q170 786 170 912L170 912Q170 1125 288 1350Q406 1575 655.50 1830Q905 2085 1300 2388ZM420 1515L500 1535L500 431L420 431L420 1515ZM700 1851L780 1871L780 355L700 355L700 1851ZM980 2105L1060 2125L1060 418L980 418L980 2105ZM1260 673L1260 2339L1340 2339L1340 673L1260 673ZM1300 2293L1300 2293Q935 2010 703 1768.50Q471 1527 360.50 1315.50Q250 1104 250 912L250 912Q250 765 313.50 646.50Q377 528 486 458Q595 388 732 388L732 388Q860 388 969 441Q1078 494 1162.50 592Q1247 690 1300 824L1300 824Q1353 690 1437.50 592Q1522 494 1631.50 441Q1741 388 1868 388L1868 388Q2005 388 2114 458Q2223 528 2286.50 646.50Q2350 765 2350 912L2350 912Q2350 1104 2239.50 1315.50Q2129 1527 1897 1768.50Q1665 2010 1300 2293ZM1540 418L1540 2125L1620 2105L1620 418L1540 418ZM1820 355L1820 1871L1900 1851L1900 355L1820 355ZM2100 431L2100 1535L2180 1515L2180 431L2100 431Z"/></svg>