<svg xmlns="http://www.w3.org/2000/svg" viewBox="121 396 2357 1903" fill="white"><path d="M2186 1583L414 1583L414 458L2186 458L2186 1583ZM494 538L494 1583L2106 1583L2106 538L494 538ZM1973 1455L627 1455L627 671L1973 671L1973 1455ZM664 1907L648 1949L764 1949L777 1907L664 1907ZM769 1838L752 1880L866 1880L884 1838L769 1838ZM734 1770L716 1813L833 1813L850 1770L734 1770ZM700 1706L688 1742L803 1742L817 1706L700 1706ZM880 1706L863 1742L978 1742L993 1706L880 1706ZM2333 2158L2333 2036L2417 2036L2417 2238L183 2238L183 2036L267 2036L267 2158L2333 2158ZM941 1770L923 1813L1038 1813L1051 1770L941 1770ZM989 1838L973 1880L1089 1880L1097 1838L989 1838ZM1054 1706L1038 1742L1150 1742L1164 1706L1054 1706ZM1117 1770L1106 1813L1221 1813L1229 1770L1117 1770ZM1192 1838L1183 1880L1298 1880L1295 1838L1192 1838ZM918 1907L901 1949L1696 1949L1678 1907L918 1907ZM1219 1706L1207 1742L1325 1742L1314 1706L1219 1706ZM1281 1770L1277 1813L1390 1813L1377 1770L1281 1770ZM1395 1838L1406 1880L1518 1880L1504 1838L1395 1838ZM1372 1706L1385 1742L1497 1742L1481 1706L1372 1706ZM1431 1770L1443 1813L1555 1813L1536 1770L1431 1770ZM1572 1838L1590 1880L1706 1880L1687 1838L1572 1838ZM1541 1706L1562 1742L1676 1742L1656 1706L1541 1706ZM1613 1770L1632 1813L1746 1813L1728 1770L1613 1770ZM1820 1907L1840 1949L1954 1949L1932 1907L1820 1907ZM1717 1706L1735 1742L1852 1742L1831 1706L1717 1706ZM1787 1770L1809 1813L1922 1813L1900 1770L1787 1770ZM1771 1838L1789 1880L2199 1880L2176 1838L1771 1838ZM2039 1907L2060 1949L2238 1949L2214 1907L2039 1907ZM1893 1706L1911 1742L2122 1742L2102 1706L1893 1706ZM1980 1770L2001 1813L2162 1813L2138 1770L1980 1770ZM2417 2073L183 2073L183 1996L414 1583L2186 1583L2417 1996L2417 2073ZM468 1657L280 1993L2320 1993L2132 1657L468 1657ZM386 1907L362 1949L540 1949L552 1907L386 1907ZM424 1838L401 1880L687 1880L705 1838L424 1838ZM462 1770L438 1813L650 1813L668 1770L462 1770ZM498 1706L478 1742L616 1742L630 1706L498 1706Z"/></svg>