<svg xmlns="http://www.w3.org/2000/svg" viewBox="198 246 2203 2203" fill="white"><path d="M1618 1757L1664 1650Q1695 1633 1723.50 1612Q1752 1591 1777 1566L1777 1566L2117 1224Q2186 1154 2223 1064Q2260 974 2260 876L2260 876Q2260 777 2223 688Q2186 599 2117 530L2117 530Q1975 388 1771 388L1771 388Q1568 388 1424 530L1424 530L1081 872Q940 1011 940 1215L940 1215Q940 1315 977 1406Q1014 1497 1084 1566L1084 1566Q1196 1677 1346 1701L1346 1701L1282 1768Q1135 1729 1028 1622L1028 1622Q948 1542 904 1436Q860 1330 860 1215L860 1215Q860 1102 903 998Q946 894 1025 816L1025 816L1368 474Q1448 394 1552.50 351Q1657 308 1771 308L1771 308Q1884 308 1989 351Q2094 394 2173 474L2173 474Q2253 554 2296.50 658.50Q2340 763 2340 876L2340 876Q2340 989 2296.50 1094.50Q2253 1200 2173 1280L2173 1280L1833 1622Q1743 1712 1618 1757L1618 1757ZM1269 996L1324 928Q1468 968 1573 1073L1573 1073Q1653 1152 1696 1257Q1739 1362 1739 1475L1739 1475Q1739 1589 1696 1694Q1653 1799 1573 1879L1573 1879L1233 2221Q1154 2301 1049 2344.50Q944 2388 831 2388L831 2388Q718 2388 613.50 2344.50Q509 2301 428 2221L428 2221Q348 2141 304 2035Q260 1929 260 1814L260 1814Q260 1701 303 1597Q346 1493 425 1415L425 1415L768 1073Q861 982 977 942L977 942L927 1052Q898 1068 872.50 1087Q847 1106 824 1129L824 1129L481 1471Q340 1610 340 1814L340 1814Q340 1914 377 2005Q414 2096 484 2165L484 2165Q629 2308 831 2308L831 2308Q1034 2308 1177 2165L1177 2165L1517 1823Q1659 1679 1659 1475L1659 1475Q1659 1271 1517 1129L1517 1129Q1415 1027 1269 996L1269 996ZM1152 1236L1152 1156Q1158 1156 1163.50 1156Q1169 1156 1172 1156L1172 1156Q1305 1156 1398 1251L1398 1251Q1490 1345 1490 1479L1490 1479Q1490 1542 1465.50 1600.50Q1441 1659 1397 1704L1397 1704L1055 2047Q1012 2090 949.50 2116Q887 2142 825 2142L825 2142Q769 2142 708 2116.50Q647 2091 606 2051L606 2051Q507 1954 507 1821L507 1821Q507 1758 531 1699Q555 1640 601 1594L601 1594L906 1289L920 1387L659 1650Q587 1724 587 1821L587 1821Q587 1920 662 1995L662 1995Q691 2024 737.50 2043Q784 2062 825 2062L825 2062Q872 2062 919.50 2042.50Q967 2023 999 1991L999 1991L1341 1648Q1410 1579 1410 1479L1410 1479Q1410 1379 1340 1307L1340 1307Q1271 1236 1172 1236L1172 1236Q1169 1236 1163.50 1236Q1158 1236 1152 1236L1152 1236ZM1686 1416L1675 1317L1941 1049Q2011 979 2011 880L2011 880Q2011 781 1940 708L1940 708Q1871 637 1772 637L1772 637Q1669 637 1600 708L1600 708L1259 1051Q1187 1125 1187 1222L1187 1222Q1187 1321 1262 1396L1262 1396Q1291 1425 1337.50 1444Q1384 1463 1425 1463L1425 1463Q1428 1463 1432.50 1463Q1437 1463 1444 1463L1444 1463L1444 1543Q1439 1543 1433.50 1543Q1428 1543 1425 1543L1425 1543Q1369 1543 1308 1517.50Q1247 1492 1206 1452L1206 1452Q1107 1355 1107 1222L1107 1222Q1107 1159 1131 1100Q1155 1041 1201 995L1201 995L1544 652Q1639 557 1772 557L1772 557Q1905 557 1998 652L1998 652Q2091 747 2091 880L2091 880Q2091 943 2066.50 1001.50Q2042 1060 1997 1105L1997 1105L1686 1416Z"/></svg>