<svg xmlns="http://www.w3.org/2000/svg" viewBox="228 296 2143 2153" fill="white"><path d="M1209 2388L1126 2388L1023 2130L1138 1876Q1047 1871 970 1822.50Q893 1774 845.50 1696Q798 1618 794 1526L794 1526L526 1675L302 1584L290 1496L551 1249L920 1186Q997 1068 1106 949.50Q1215 831 1343.50 725Q1472 619 1605 536Q1738 453 1864 405.50Q1990 358 2094 358L2094 358Q2198 358 2254 412Q2310 466 2310 569L2310 569Q2310 664 2262.50 784Q2215 904 2133 1034.50Q2051 1165 1946 1293Q1841 1421 1725 1532.50Q1609 1644 1495 1725L1495 1725L1442 2123L1209 2388ZM547 2269L547 2269L553 2179Q493 2187 442.50 2191.50Q392 2196 343 2196L343 2196Q375 2137 396 2084.50Q417 2032 434 1980L434 1980Q451 1928 474.50 1889.50Q498 1851 535 1814L535 1814Q583 1766 653 1739.50Q723 1713 789 1712L789 1712L789 1792Q734 1793 680.50 1815Q627 1837 592 1871L592 1871Q561 1902 543 1931.50Q525 1961 510 2005L510 2005Q502 2030 493 2055.50Q484 2081 473 2108L473 2108Q501 2105 538 2098.50Q575 2092 624 2081L624 2081L634 2162Q684 2143 725 2115.50Q766 2088 806 2047L806 2047Q856 1995 883 1903L883 1903L960 1925Q944 1979 921 2023Q898 2067 863 2103L863 2103Q790 2178 716 2213.50Q642 2249 547 2269ZM1001 1978L1001 1978Q958 1976 905.50 1945Q853 1914 805 1866Q757 1818 726 1765.50Q695 1713 693 1670L693 1670Q738 1609 799 1564L799 1564L928 1753L1108 1872Q1086 1903 1059.50 1929.50Q1033 1956 1001 1978ZM371 1529L519 1587L802 1430Q813 1392 828.50 1353.50Q844 1315 866 1277L866 1277L588 1322L371 1529ZM1108 2130L1179 2303L1367 2088L1406 1786Q1310 1848 1232 1864L1232 1864L1108 2130ZM1520 1634L1477 1701Q1411 1697 1327 1649Q1243 1601 1156 1525L1156 1525Q1104 1479 1061 1416Q1018 1353 991 1287.50Q964 1222 960 1172L960 1172L1027 1124Q1029 1164 1052 1225.50Q1075 1287 1115.50 1351.50Q1156 1416 1210 1466L1210 1466Q1291 1541 1375 1585.50Q1459 1630 1520 1634L1520 1634ZM1544 1285L1544 1285Q1474 1285 1424 1235Q1374 1185 1374 1115L1374 1115Q1374 1044 1424 994.50Q1474 945 1544 945L1544 945Q1615 945 1664.50 994.50Q1714 1044 1714 1115L1714 1115Q1714 1185 1664.50 1235Q1615 1285 1544 1285ZM1149 1801L1149 1801Q1221 1801 1313.50 1753Q1406 1705 1509 1622.50Q1612 1540 1714.50 1433.50Q1817 1327 1909.50 1209.50Q2002 1092 2074.50 974.50Q2147 857 2188.50 752Q2230 647 2230 566L2230 566Q2230 509 2199 472.50Q2168 436 2091 436L2091 436Q1993 436 1865.50 489.50Q1738 543 1600.50 634Q1463 725 1333.50 838.50Q1204 952 1099 1074Q994 1196 932 1311Q870 1426 870 1518L870 1518Q870 1593 910 1657.50Q950 1722 1014 1761.50Q1078 1801 1149 1801ZM2097 960L2093 1040Q2015 1035 1931.50 995.50Q1848 956 1780 889L1780 889Q1715 825 1674.50 738.50Q1634 652 1629 564L1629 564L1709 560Q1712 615 1740.50 690.50Q1769 766 1836 831L1836 831Q1902 895 1972 926Q2042 957 2097 960L2097 960Z"/></svg>