<svg xmlns="http://www.w3.org/2000/svg" viewBox="152 246 2295 2203" fill="white"><path d="M2128 1898L2048 1898L2048 619Q2048 564 2026.50 511Q2005 458 1972.50 423Q1940 388 1907 388L1907 388L572 388L572 308L1907 308Q1963 308 2013.50 353Q2064 398 2096 469Q2128 540 2128 619L2128 619L2128 1898ZM609 2224L609 2224Q558 2224 522 2188Q486 2152 486 2100L486 2100Q486 2048 522 2011.50Q558 1975 609 1975L609 1975Q659 1975 695.50 2012Q732 2049 732 2100L732 2100Q732 2151 695.50 2187.50Q659 2224 609 2224ZM609 2144L609 2144Q627 2144 639.50 2130.50Q652 2117 652 2100L652 2100Q652 2082 639.50 2068.50Q627 2055 609 2055L609 2055Q591 2055 578.50 2068Q566 2081 566 2100L566 2100Q566 2118 578.50 2131Q591 2144 609 2144ZM750 2320L750 2320Q698 2320 657 2283Q616 2246 598 2185L598 2185L672 2154Q682 2191 703.50 2215.50Q725 2240 750 2240L750 2240Q785 2240 810 2198.50Q835 2157 835 2100L835 2100Q835 2043 810 2001.50Q785 1960 750 1960L750 1960Q723 1960 701 1986.50Q679 2013 669 2054L669 2054L598 2012Q618 1953 658 1916.50Q698 1880 750 1880L750 1880Q820 1880 867.50 1944Q915 2008 915 2100L915 2100Q915 2192 867.50 2256Q820 2320 750 2320ZM848 2388L848 2388Q792 2388 745 2354Q698 2320 670 2265L670 2265L769 2271Q804 2308 848 2308L848 2308Q903 2308 943 2251Q983 2194 983 2112L983 2112Q983 2030 943 1973Q903 1916 848 1916L848 1916Q817 1916 790 1935L790 1935L695 1920Q724 1881 763 1858.50Q802 1836 848 1836L848 1836Q908 1836 957 1873Q1006 1910 1034.50 1972.50Q1063 2035 1063 2112L1063 2112Q1063 2189 1034.50 2251.50Q1006 2314 957 2351Q908 2388 848 2388ZM791 1913L711 1913L711 584L791 584L791 1913ZM2171 2388L848 2388L848 2308L2171 2308Q2225 2308 2265.50 2250Q2306 2192 2306 2112L2306 2112Q2306 2032 2265.50 1974.50Q2225 1917 2171 1917L2171 1917L848 1916L848 1836L2171 1837Q2231 1837 2279.50 1874.50Q2328 1912 2357 1974Q2386 2036 2386 2112L2386 2112Q2386 2188 2357 2250.50Q2328 2313 2279.50 2350.50Q2231 2388 2171 2388L2171 2388ZM337 696L337 696Q286 696 250 660Q214 624 214 572L214 572Q214 520 250 483.50Q286 447 337 447L337 447Q387 447 423.50 484Q460 521 460 572L460 572Q460 623 423.50 659.50Q387 696 337 696ZM337 616L337 616Q355 616 367.50 602.50Q380 589 380 572L380 572Q380 554 367.50 540.50Q355 527 337 527L337 527Q319 527 306.50 540Q294 553 294 572L294 572Q294 590 306.50 603Q319 616 337 616ZM748 861L573 861L573 781L748 781L748 861ZM478 792L478 792Q426 792 385 755Q344 718 326 657L326 657L400 626Q410 663 431.50 687.50Q453 712 478 712L478 712Q513 712 538 670.50Q563 629 563 572L563 572Q563 515 538 473.50Q513 432 478 432L478 432Q451 432 429 458.50Q407 485 397 526L397 526L326 484Q346 425 386 388.50Q426 352 478 352L478 352Q548 352 595.50 416Q643 480 643 572L643 572Q643 664 595.50 728Q548 792 478 792ZM576 860L576 860Q520 860 473 826Q426 792 398 737L398 737L497 743Q532 780 576 780L576 780Q631 780 671 723Q711 666 711 584L711 584Q711 502 671 445Q631 388 576 388L576 388Q545 388 518 407L518 407L423 392Q452 353 491 330.50Q530 308 576 308L576 308Q636 308 685 345Q734 382 762.50 444.50Q791 507 791 584L791 584Q791 661 762.50 723.50Q734 786 685 823Q636 860 576 860ZM1334 1717L1258 1718L1236 1712L1199 1716L1193 1652L1240 1648L1266 1654L1324 1653L1381 1636L1462 1649L1522 1652L1581 1637L1620 1648L1657 1649L1655 1713L1610 1712L1579 1703L1528 1716L1456 1713L1385 1702L1334 1717ZM1101 1527L1043 1538L977 1532L983 1468L1039 1474L1097 1463L1139 1466L1198 1468L1351 1463L1423 1469L1457 1469L1487 1454L1583 1464L1641 1464L1712 1459L1814 1470L1808 1534L1710 1523L1643 1528L1579 1528L1499 1520L1471 1533L1419 1533L1349 1527L1198 1532L1135 1530L1101 1527ZM1746 1289L1742 1353L1616 1344L1537 1352L1465 1332L1404 1353L1338 1344L1228 1351L1170 1346L1100 1338L1050 1348L991 1348L991 1284L1044 1284L1096 1272L1176 1282L1230 1287L1340 1280L1398 1287L1463 1264L1543 1286L1616 1280L1746 1289ZM1245 1161L1151 1174L1094 1152L1074 1152L997 1162L989 1098L1069 1088L1106 1088L1159 1108L1241 1097L1319 1099L1396 1088L1472 1099L1462 1163L1396 1152L1323 1163L1245 1161ZM1222 783L1180 798L1134 789L1094 785L1047 783L993 788L987 724L1045 719L1099 721L1144 725L1175 732L1212 719L1306 724L1302 788L1222 783ZM1453 964L1388 990L1322 974L1195 985L1103 962L1046 982L990 983L988 919L1034 918L1099 894L1199 921L1326 910L1384 922L1448 896L1541 921L1619 901L1752 916L1746 980L1623 967L1541 987L1453 964ZM1171 592L1086 612L1015 596L986 605L965 544L1011 528L1086 546L1179 524L1208 539L1181 596L1171 592ZM1703 1161L1642 1161L1642 1097L1685 1097L1722 1075L1799 1097L1847 1096L1849 1160L1789 1161L1732 1143L1703 1161ZM1757 777L1661 797L1586 776L1530 788L1516 726L1588 710L1663 731L1755 711L1840 726L1830 788L1757 777ZM1427 595L1349 607L1339 543L1423 531L1508 530L1596 538L1649 534L1695 524L1813 533L1809 597L1699 588L1659 598L1596 602L1504 594L1427 595Z"/></svg>