<svg xmlns="http://www.w3.org/2000/svg" viewBox="248 246 2104 2203" fill="white"><path d="M750 2198L750 2198Q701 2198 672 2158.50Q643 2119 653 2067L653 2067L762 1516L352 1134Q312 1096 312 1052L312 1052Q312 1011 340 983Q368 955 412 950L412 950L967 883L1204 375Q1235 308 1300 308L1300 308Q1365 308 1396 375L1396 375L1633 883L2188 950Q2232 955 2260 983Q2288 1011 2288 1052L2288 1052Q2288 1096 2248 1134L2248 1134L1838 1516L1947 2067Q1958 2119 1929 2158.50Q1900 2198 1850 2198L1850 2198Q1819 2198 1790 2181L1790 2181L1300 1907L810 2181Q781 2198 750 2198ZM589 1650L407 1763Q389 1774 371 1768Q353 1762 347 1743L347 1743L312 1633Q306 1613 316 1597.50Q326 1582 347 1581L347 1581L562 1565Q603 1562 613 1595L613 1595Q623 1629 589 1650L589 1650ZM1357 2388L1243 2388Q1222 2388 1210.50 2373Q1199 2358 1204 2338L1204 2338L1255 2129Q1265 2090 1300 2090L1300 2090Q1335 2090 1345 2129L1345 2129L1396 2338Q1401 2358 1389.50 2373Q1378 2388 1357 2388L1357 2388ZM750 2119L750 2119Q762 2119 774 2112L774 2112L1300 1818L1826 2112Q1838 2119 1850 2119L1850 2119Q1864 2119 1868.50 2107Q1873 2095 1869 2075L1869 2075L1753 1488L2191 1081Q2210 1064 2210 1052L2210 1052Q2210 1032 2171 1027L2171 1027L1580 955L1331 419Q1315 386 1300 386L1300 386Q1285 386 1269 419L1269 419L1020 955L429 1027Q390 1032 390 1052L390 1052Q390 1064 409 1081L409 1081L847 1488L731 2075Q727 2095 732 2107Q737 2119 750 2119ZM864 798L864 798Q836 819 805 793L805 793L640 655Q624 641 625 621.50Q626 602 642 591L642 591L735 525Q752 512 770 517Q788 522 796 542L796 542L877 741Q891 778 864 798ZM2193 1763L2193 1763L2011 1650Q1977 1629 1987 1595L1987 1595Q1997 1562 2038 1565L2038 1565L2253 1581Q2274 1582 2284 1597.50Q2294 1613 2288 1633L2288 1633L2253 1743Q2247 1762 2229 1768Q2211 1774 2193 1763ZM1736 798L1736 798Q1709 778 1723 741L1723 741L1804 542Q1812 522 1830 517Q1848 512 1865 525L1865 525L1958 591Q1975 602 1976 621.50Q1977 641 1960 655L1960 655L1795 793Q1764 819 1736 798Z"/></svg>