<svg xmlns="http://www.w3.org/2000/svg" viewBox="530 248 3047 2200" fill="white"><path d="M1290 2388L1290 2388Q1001 2388 837 2297.50Q673 2207 658 2052L658 2052Q647 1935 639.50 1802Q632 1669 629 1500.50Q626 1332 626 1112L626 1112L706 1112Q706 1331 709 1499Q712 1667 719 1799Q726 1931 738 2045L738 2045Q751 2166 890 2237Q1029 2308 1290 2308L1290 2308Q1491 2308 1634 2274.50Q1777 2241 1853.50 2182.50Q1930 2124 1930 2048L1930 2048Q1930 2029 1925.50 2010.50Q1921 1992 1908 1966L1908 1966Q1888 1925 1877 1885Q1866 1845 1866 1801L1866 1801L1866 1095L1946 1095L1946 1801Q1946 1843 1956.50 1878Q1967 1913 1985 1951L1985 1951Q1999 1979 2004.50 2000.50Q2010 2022 2010 2048L2010 2048Q2010 2149 1922.50 2225.50Q1835 2302 1673.50 2345Q1512 2388 1290 2388ZM1285 1706L1285 1706Q1201 1706 1131.50 1673.50Q1062 1641 1008 1575L1008 1575L1053 1536Q1100 1593 1156.50 1619Q1213 1645 1285 1645L1285 1645Q1358 1645 1415 1619Q1472 1593 1518 1536L1518 1536L1564 1575Q1509 1641 1439.50 1673.50Q1370 1706 1285 1706ZM1009 1401L1009 1401Q972 1401 947 1373.50Q922 1346 922 1307L922 1307Q922 1268 947 1240.50Q972 1213 1009 1213L1009 1213Q1046 1213 1070.50 1240.50Q1095 1268 1095 1307L1095 1307Q1095 1346 1070.50 1373.50Q1046 1401 1009 1401ZM1538 1401L1538 1401Q1501 1401 1476.50 1373.50Q1452 1346 1452 1307L1452 1307Q1452 1268 1476.50 1240.50Q1501 1213 1538 1213L1538 1213Q1576 1213 1600 1240.50Q1624 1268 1624 1307L1624 1307Q1624 1346 1600 1373.50Q1576 1401 1538 1401ZM662 1375L662 1375Q640 1375 624 1334Q608 1293 599 1222.50Q590 1152 590 1065L590 1065Q590 833 671.50 663Q753 493 909 400.50Q1065 308 1288 308L1288 308Q1510 308 1665 400.50Q1820 493 1901 663Q1982 833 1982 1065L1982 1065Q1982 1152 1973 1222.50Q1964 1293 1948 1334Q1932 1375 1910 1375L1910 1375Q1873 1375 1856.50 1335.50Q1840 1296 1831 1237.50Q1822 1179 1808.50 1120.50Q1795 1062 1765.50 1022.50Q1736 983 1677 983L1677 983Q1629 983 1569 993.50Q1509 1004 1438 1015Q1367 1026 1284 1026L1284 1026Q1203 1026 1132.50 1015Q1062 1004 1003 993.50Q944 983 895 983L895 983Q837 983 807 1022.50Q777 1062 763.50 1120.50Q750 1179 741 1237.50Q732 1296 715.50 1335.50Q699 1375 662 1375ZM3286 1583L1514 1583L1514 458L3286 458L3286 1583ZM1594 538L1594 1583L3206 1583L3206 538L1594 538ZM3073 1455L1727 1455L1727 671L3073 671L3073 1455ZM1764 1907L1748 1949L1864 1949L1877 1907L1764 1907ZM1869 1838L1852 1880L1966 1880L1984 1838L1869 1838ZM1834 1770L1816 1813L1933 1813L1950 1770L1834 1770ZM1800 1706L1788 1742L1903 1742L1917 1706L1800 1706ZM1980 1706L1963 1742L2078 1742L2093 1706L1980 1706ZM3433 2158L3433 2036L3517 2036L3517 2238L1283 2238L1283 2036L1367 2036L1367 2158L3433 2158ZM2041 1770L2023 1813L2138 1813L2151 1770L2041 1770ZM2089 1838L2073 1880L2189 1880L2197 1838L2089 1838ZM2154 1706L2138 1742L2250 1742L2264 1706L2154 1706ZM2217 1770L2206 1813L2321 1813L2329 1770L2217 1770ZM2292 1838L2283 1880L2398 1880L2395 1838L2292 1838ZM2018 1907L2001 1949L2796 1949L2778 1907L2018 1907ZM2319 1706L2307 1742L2425 1742L2414 1706L2319 1706ZM2381 1770L2377 1813L2490 1813L2477 1770L2381 1770ZM2495 1838L2506 1880L2618 1880L2604 1838L2495 1838ZM2472 1706L2485 1742L2597 1742L2581 1706L2472 1706ZM2531 1770L2543 1813L2655 1813L2636 1770L2531 1770ZM2672 1838L2690 1880L2806 1880L2787 1838L2672 1838ZM2641 1706L2662 1742L2776 1742L2756 1706L2641 1706ZM2713 1770L2732 1813L2846 1813L2828 1770L2713 1770ZM2920 1907L2940 1949L3054 1949L3032 1907L2920 1907ZM2817 1706L2835 1742L2952 1742L2931 1706L2817 1706ZM2887 1770L2909 1813L3022 1813L3000 1770L2887 1770ZM2871 1838L2889 1880L3299 1880L3276 1838L2871 1838ZM3139 1907L3160 1949L3338 1949L3314 1907L3139 1907ZM2993 1706L3011 1742L3222 1742L3202 1706L2993 1706ZM3080 1770L3101 1813L3262 1813L3238 1770L3080 1770ZM3517 2073L1283 2073L1283 1996L1514 1583L3286 1583L3517 1996L3517 2073ZM1568 1657L1380 1993L3420 1993L3232 1657L1568 1657ZM1486 1907L1462 1949L1640 1949L1652 1907L1486 1907ZM1524 1838L1501 1880L1787 1880L1805 1838L1524 1838ZM1562 1770L1538 1813L1750 1813L1768 1770L1562 1770ZM1598 1706L1578 1742L1716 1742L1730 1706L1598 1706Z"/></svg>