<svg xmlns="http://www.w3.org/2000/svg" viewBox="152 246 2295 2203" fill="white"><path d="M624 1608L578 1608Q560 1608 548.50 1596Q537 1584 537 1567L537 1567L537 1454Q537 1437 548.50 1425Q560 1413 578 1413L578 1413L624 1413L624 1608ZM773 1817L699 1817Q661 1817 635.50 1791Q610 1765 610 1728L610 1728L610 1389Q610 1351 635.50 1325.50Q661 1300 699 1300L699 1300L773 1300Q811 1300 836.50 1325.50Q862 1351 862 1389L862 1389L862 1728Q862 1765 836.50 1791Q811 1817 773 1817L773 1817ZM699 1750L699 1750L773 1750Q796 1750 796 1728L796 1728L796 1389Q796 1367 773 1367L773 1367L699 1367Q676 1367 676 1389L676 1389L676 1728Q676 1750 699 1750ZM894 1608L848 1608L848 1413L894 1413Q912 1413 923.50 1425Q935 1437 935 1454L935 1454L935 1567Q935 1584 923.50 1596Q912 1608 894 1608L894 1608ZM1300 580L1300 660L629 660L481 777L1300 777L1300 857L399 857L313 1111L1300 1111L1300 1191L294 1191L294 1469L1300 1469L1300 1549L294 1549L294 2308L1300 2308L1300 2388L214 2388L214 1139L338 794L611 580L1300 580ZM1300 308L1300 444L1163 444Q1117 444 1088.50 471.50Q1060 499 1033 582L1033 582Q1008 658 981.50 685Q955 712 899 712L899 712L812 712Q771 712 764 699.50Q757 687 773.50 669Q790 651 817 636L817 636L845 620Q869 606 883 581.50Q897 557 916 495L916 495Q949 388 999.50 348Q1050 308 1143 308L1143 308L1300 308ZM2022 1608L2022 1608L1976 1608L1976 1413L2022 1413Q2040 1413 2051.50 1425Q2063 1437 2063 1454L2063 1454L2063 1567Q2063 1584 2051.50 1596Q2040 1608 2022 1608ZM1901 1817L1901 1817L1827 1817Q1789 1817 1763.50 1791Q1738 1765 1738 1728L1738 1728L1738 1389Q1738 1351 1763.50 1325.50Q1789 1300 1827 1300L1827 1300L1901 1300Q1939 1300 1964.50 1325.50Q1990 1351 1990 1389L1990 1389L1990 1728Q1990 1765 1964.50 1791Q1939 1817 1901 1817ZM1827 1750L1901 1750Q1924 1750 1924 1728L1924 1728L1924 1389Q1924 1367 1901 1367L1901 1367L1827 1367Q1804 1367 1804 1389L1804 1389L1804 1728Q1804 1750 1827 1750L1827 1750ZM1752 1413L1752 1608L1706 1608Q1688 1608 1676.50 1596Q1665 1584 1665 1567L1665 1567L1665 1454Q1665 1437 1676.50 1425Q1688 1413 1706 1413L1706 1413L1752 1413ZM1971 660L1300 660L1300 580L1989 580L2262 794L2386 1139L2386 2388L1300 2388L1300 2308L2306 2308L2306 1549L1300 1549L1300 1469L2306 1469L2306 1191L1300 1191L1300 1111L2287 1111L2201 857L1300 857L1300 777L2119 777L1971 660ZM1437 444L1300 444L1300 308L1457 308Q1550 308 1600.50 348Q1651 388 1684 495L1684 495Q1704 557 1717.50 581.50Q1731 606 1755 620L1755 620L1783 636Q1811 651 1827 669Q1843 687 1836.50 699.50Q1830 712 1788 712L1788 712L1701 712Q1646 712 1619 685Q1592 658 1567 582L1567 582Q1540 499 1511.50 471.50Q1483 444 1437 444L1437 444Z"/></svg>