<svg xmlns="http://www.w3.org/2000/svg" viewBox="93.1 -1906.9 2413.8 2413.8" fill="currentColor">
  <path d="M631 340L631 340Q567 340 512 305.50Q457 271 424 214.50Q391 158 391 91L391 91Q391 23 420.50-33.50Q450-90 519-152L519-152L1585-1121Q1546-1207 1546-1301L1546-1301Q1546-1423 1605-1522.50Q1664-1622 1763.50-1681Q1863-1740 1983-1740L1983-1740Q2088-1740 2153.50-1703.50Q2219-1667 2240-1592L2240-1592L1981-1442Q1979-1433 1979-1419L1979-1419Q1979-1359 2012.50-1308Q2046-1257 2102-1232L2102-1232L2408-1408Q2425-1345 2425-1288L2425-1288Q2425-1173 2368-1076.50Q2311-980 2214.50-922.50Q2118-865 1998-865L1998-865Q1918-865 1844-889L1844-889L915 188Q879 230 842 264.50Q805 299 756 319.50Q707 340 631 340ZM678 141L678 141Q646 141 622.50 117.50Q599 94 599 62L599 62Q599 30 622.50 6.50Q646-17 678-17L678-17Q710-17 733.50 6.50Q757 30 757 62L757 62Q757 94 733.50 117.50Q710 141 678 141ZM2081 340L2081 340Q2013 340 1972 289L1972 289L1386-417L1438-479L2034 237Q2052 260 2081 260L2081 260Q2105 260 2123 243L2123 243L2235 147Q2257 128 2257 100L2257 100Q2257 75 2242 60L2242 60L1576-642L1628-704L2300 4Q2337 44 2337 100L2337 100Q2337 161 2286 207L2286 207L2175 305Q2135 340 2081 340ZM631 260L631 260Q689 260 724.50 246.50Q760 233 789.50 205.50Q819 178 855 136L855 136L1820-984Q1867-963 1907.50-954Q1948-945 1998-945L1998-945Q2094-945 2170-988.50Q2246-1032 2291.50-1107Q2337-1182 2340-1276L2340-1276L2110-1144Q2016-1170 1957.50-1247Q1899-1324 1899-1419L1899-1419Q1899-1453 1909-1493L1909-1493L2120-1615Q2078-1660 1983-1660L1983-1660Q1885-1660 1803.50-1611.50Q1722-1563 1674-1481.50Q1626-1400 1626-1301L1626-1301Q1626-1193 1687-1104L1687-1104L573-92Q516-40 493.50 0.50Q471 41 471 91L471 91Q471 158 519 209Q567 260 631 260ZM1227-736L1169-681L907-996L1146-1211L1422-922L1364-866L1133-1109L1008-998L1227-736ZM504-586L504-586Q479-586 452-597Q425-608 394-627L394-627Q343-659 289.50-720Q236-781 200-855L200-855Q188-880 181.50-901.50Q175-923 175-943L175-943Q175-967 184-987.50Q193-1008 215-1026L215-1026L330-1119Q379-1159 418-1159L418-1159Q435-1159 452.50-1153.50Q470-1148 492-1136L492-1136L513-1124Q526-1117 536-1117L536-1117Q546-1117 558-1129L558-1129L569-1140Q586-1157 586-1171L586-1171Q586-1178 584-1187.50Q582-1197 578-1210L578-1210L573-1230Q567-1256 567-1268L567-1268Q567-1309 591-1346.50Q615-1384 660-1422L660-1422L832-1568Q913-1637 983.50-1674Q1054-1711 1140.50-1725.50Q1227-1740 1353-1740L1353-1740Q1430-1740 1464-1717Q1498-1694 1498-1641L1498-1641Q1498-1597 1460.50-1575.50Q1423-1554 1334-1529L1334-1529Q1282-1515 1236-1495Q1190-1475 1161.50-1455Q1133-1435 1133-1419L1133-1419Q1133-1399 1161-1378L1161-1378Q1193-1354 1211.50-1325Q1230-1296 1230-1262L1230-1262Q1230-1191 1165-1134L1165-1134L964-960Q939-939 918.50-928Q898-917 875-917L875-917Q859-917 832-926L832-926L803-936Q767-949 758-949L758-949Q747-949 732-937L732-937L717-924Q706-914 706-901L706-901Q706-897 707.50-892Q709-887 711-882L711-882L720-860Q739-814 735.50-777.50Q732-741 695-711L695-711L581-618Q542-586 504-586ZM498-666L498-666Q512-666 527-678L527-678L630-760Q653-778 649.50-802.50Q646-827 631-866L631-866L623-887Q615-909 621.50-928.50Q628-948 646-963L646-963L683-995Q701-1010 718.50-1017Q736-1024 757-1024L757-1024Q771-1024 787-1020Q803-1016 823-1010L823-1010L852-1001Q863-998 871-998L871-998Q886-998 912-1020L912-1020L1115-1194Q1150-1225 1150-1262L1150-1262Q1150-1288 1117-1310L1117-1310Q1053-1353 1053-1425L1053-1425Q1053-1482 1125-1524.50Q1197-1567 1314-1599L1314-1599Q1380-1617 1399-1626Q1418-1635 1418-1648L1418-1648Q1418-1659 1405.50-1663Q1393-1667 1353-1667L1353-1667Q1237-1667 1160-1653.50Q1083-1640 1020-1605Q957-1570 883-1507L883-1507L711-1360Q681-1334 664-1313Q647-1292 647-1263L647-1263Q647-1258 648-1251.50Q649-1245 650-1240L650-1240L655-1220Q660-1199 662.50-1183.50Q665-1168 665-1156L665-1156Q665-1124 633-1095L633-1095L595-1060Q571-1038 548.50-1031.50Q526-1025 503-1039L503-1039L482-1052Q462-1065 449-1069.50Q436-1074 422-1074L422-1074Q402-1074 384-1059L384-1059L269-966Q256-954 256-937L256-937Q256-919 270-894L270-894Q309-825 352.50-773Q396-721 436-695L436-695Q456-682 471-674Q486-666 498-666Z"/>
</svg>