<svg xmlns="http://www.w3.org/2000/svg" viewBox="101.1 -1898.9 2397.8 2397.8" fill="currentColor">
  <path d="M2186-465L414-465L414-1590L2186-1590L2186-465ZM494-1510L494-465L2106-465L2106-1510L494-1510ZM1973-593L627-593L627-1377L1973-1377L1973-593ZM664-141L648-99L764-99L777-141L664-141ZM769-210L752-168L866-168L884-210L769-210ZM734-278L716-235L833-235L850-278L734-278ZM700-342L688-306L803-306L817-342L700-342ZM880-342L863-306L978-306L993-342L880-342ZM2333 110L2333-12L2417-12L2417 190L183 190L183-12L267-12L267 110L2333 110ZM941-278L923-235L1038-235L1051-278L941-278ZM989-210L973-168L1089-168L1097-210L989-210ZM1054-342L1038-306L1150-306L1164-342L1054-342ZM1117-278L1106-235L1221-235L1229-278L1117-278ZM1192-210L1183-168L1298-168L1295-210L1192-210ZM918-141L901-99L1696-99L1678-141L918-141ZM1219-342L1207-306L1325-306L1314-342L1219-342ZM1281-278L1277-235L1390-235L1377-278L1281-278ZM1395-210L1406-168L1518-168L1504-210L1395-210ZM1372-342L1385-306L1497-306L1481-342L1372-342ZM1431-278L1443-235L1555-235L1536-278L1431-278ZM1572-210L1590-168L1706-168L1687-210L1572-210ZM1541-342L1562-306L1676-306L1656-342L1541-342ZM1613-278L1632-235L1746-235L1728-278L1613-278ZM1820-141L1840-99L1954-99L1932-141L1820-141ZM1717-342L1735-306L1852-306L1831-342L1717-342ZM1787-278L1809-235L1922-235L1900-278L1787-278ZM1771-210L1789-168L2199-168L2176-210L1771-210ZM2039-141L2060-99L2238-99L2214-141L2039-141ZM1893-342L1911-306L2122-306L2102-342L1893-342ZM1980-278L2001-235L2162-235L2138-278L1980-278ZM2417 25L183 25L183-52L414-465L2186-465L2417-52L2417 25ZM468-391L280-55L2320-55L2132-391L468-391ZM386-141L362-99L540-99L552-141L386-141ZM424-210L401-168L687-168L705-210L424-210ZM462-278L438-235L650-235L668-278L462-278ZM498-342L478-306L616-306L630-342L498-342Z"/>
</svg>