<svg xmlns="http://www.w3.org/2000/svg" viewBox="203.1 -1771.9 2193.8 2193.8" fill="currentColor">
  <path d="M1209 340L1126 340L1023 82L1138-172Q1047-177 970-225.50Q893-274 845.50-352Q798-430 794-522L794-522L526-373L302-464L290-552L551-799L920-862Q997-980 1106-1098.50Q1215-1217 1343.50-1323Q1472-1429 1605-1512Q1738-1595 1864-1642.50Q1990-1690 2094-1690L2094-1690Q2198-1690 2254-1636Q2310-1582 2310-1479L2310-1479Q2310-1384 2262.50-1264Q2215-1144 2133-1013.50Q2051-883 1946-755Q1841-627 1725-515.50Q1609-404 1495-323L1495-323L1442 75L1209 340ZM547 221L547 221L553 131Q493 139 442.50 143.50Q392 148 343 148L343 148Q375 89 396 36.50Q417-16 434-68L434-68Q451-120 474.50-158.50Q498-197 535-234L535-234Q583-282 653-308.50Q723-335 789-336L789-336L789-256Q734-255 680.50-233Q627-211 592-177L592-177Q561-146 543-116.50Q525-87 510-43L510-43Q502-18 493 7.50Q484 33 473 60L473 60Q501 57 538 50.50Q575 44 624 33L624 33L634 114Q684 95 725 67.50Q766 40 806-1L806-1Q856-53 883-145L883-145L960-123Q944-69 921-25Q898 19 863 55L863 55Q790 130 716 165.50Q642 201 547 221ZM1001-70L1001-70Q958-72 905.50-103Q853-134 805-182Q757-230 726-282.50Q695-335 693-378L693-378Q738-439 799-484L799-484L928-295L1108-176Q1086-145 1059.50-118.50Q1033-92 1001-70ZM371-519L519-461L802-618Q813-656 828.50-694.50Q844-733 866-771L866-771L588-726L371-519ZM1108 82L1179 255L1367 40L1406-262Q1310-200 1232-184L1232-184L1108 82ZM1520-414L1477-347Q1411-351 1327-399Q1243-447 1156-523L1156-523Q1104-569 1061-632Q1018-695 991-760.50Q964-826 960-876L960-876L1027-924Q1029-884 1052-822.50Q1075-761 1115.50-696.50Q1156-632 1210-582L1210-582Q1291-507 1375-462.50Q1459-418 1520-414L1520-414ZM1544-763L1544-763Q1474-763 1424-813Q1374-863 1374-933L1374-933Q1374-1004 1424-1053.50Q1474-1103 1544-1103L1544-1103Q1615-1103 1664.50-1053.50Q1714-1004 1714-933L1714-933Q1714-863 1664.50-813Q1615-763 1544-763ZM1149-247L1149-247Q1221-247 1313.50-295Q1406-343 1509-425.50Q1612-508 1714.50-614.50Q1817-721 1909.50-838.50Q2002-956 2074.50-1073.50Q2147-1191 2188.50-1296Q2230-1401 2230-1482L2230-1482Q2230-1539 2199-1575.50Q2168-1612 2091-1612L2091-1612Q1993-1612 1865.50-1558.50Q1738-1505 1600.50-1414Q1463-1323 1333.50-1209.50Q1204-1096 1099-974Q994-852 932-737Q870-622 870-530L870-530Q870-455 910-390.50Q950-326 1014-286.50Q1078-247 1149-247ZM2097-1088L2093-1008Q2015-1013 1931.50-1052.50Q1848-1092 1780-1159L1780-1159Q1715-1223 1674.50-1309.50Q1634-1396 1629-1484L1629-1484L1709-1488Q1712-1433 1740.50-1357.50Q1769-1282 1836-1217L1836-1217Q1902-1153 1972-1122Q2042-1091 2097-1088L2097-1088Z"/>
</svg>