<svg xmlns="http://www.w3.org/2000/svg" viewBox="178.1 -1821.9 2243.8 2243.8" fill="currentColor">
  <path d="M750 150L750 150Q701 150 672 110.50Q643 71 653 19L653 19L762-532L352-914Q312-952 312-996L312-996Q312-1037 340-1065Q368-1093 412-1098L412-1098L967-1165L1204-1673Q1235-1740 1300-1740L1300-1740Q1365-1740 1396-1673L1396-1673L1633-1165L2188-1098Q2232-1093 2260-1065Q2288-1037 2288-996L2288-996Q2288-952 2248-914L2248-914L1838-532L1947 19Q1958 71 1929 110.50Q1900 150 1850 150L1850 150Q1819 150 1790 133L1790 133L1300-141L810 133Q781 150 750 150ZM589-398L407-285Q389-274 371-280Q353-286 347-305L347-305L312-415Q306-435 316-450.50Q326-466 347-467L347-467L562-483Q603-486 613-453L613-453Q623-419 589-398L589-398ZM1357 340L1243 340Q1222 340 1210.50 325Q1199 310 1204 290L1204 290L1255 81Q1265 42 1300 42L1300 42Q1335 42 1345 81L1345 81L1396 290Q1401 310 1389.50 325Q1378 340 1357 340L1357 340ZM750 71L750 71Q762 71 774 64L774 64L1300-230L1826 64Q1838 71 1850 71L1850 71Q1864 71 1868.50 59Q1873 47 1869 27L1869 27L1753-560L2191-967Q2210-984 2210-996L2210-996Q2210-1016 2171-1021L2171-1021L1580-1093L1331-1629Q1315-1662 1300-1662L1300-1662Q1285-1662 1269-1629L1269-1629L1020-1093L429-1021Q390-1016 390-996L390-996Q390-984 409-967L409-967L847-560L731 27Q727 47 732 59Q737 71 750 71ZM864-1250L864-1250Q836-1229 805-1255L805-1255L640-1393Q624-1407 625-1426.50Q626-1446 642-1457L642-1457L735-1523Q752-1536 770-1531Q788-1526 796-1506L796-1506L877-1307Q891-1270 864-1250ZM2193-285L2193-285L2011-398Q1977-419 1987-453L1987-453Q1997-486 2038-483L2038-483L2253-467Q2274-466 2284-450.50Q2294-435 2288-415L2288-415L2253-305Q2247-286 2229-280Q2211-274 2193-285ZM1736-1250L1736-1250Q1709-1270 1723-1307L1723-1307L1804-1506Q1812-1526 1830-1531Q1848-1536 1865-1523L1865-1523L1958-1457Q1975-1446 1976-1426.50Q1977-1407 1960-1393L1960-1393L1795-1255Q1764-1229 1736-1250Z"/>
</svg>