<svg xmlns="http://www.w3.org/2000/svg" viewBox="132.1 -1867.9 2335.8 2335.8" fill="currentColor">
  <path d="M624-440L578-440Q560-440 548.50-452Q537-464 537-481L537-481L537-594Q537-611 548.50-623Q560-635 578-635L578-635L624-635L624-440ZM773-231L699-231Q661-231 635.50-257Q610-283 610-320L610-320L610-659Q610-697 635.50-722.50Q661-748 699-748L699-748L773-748Q811-748 836.50-722.50Q862-697 862-659L862-659L862-320Q862-283 836.50-257Q811-231 773-231L773-231ZM699-298L699-298L773-298Q796-298 796-320L796-320L796-659Q796-681 773-681L773-681L699-681Q676-681 676-659L676-659L676-320Q676-298 699-298ZM894-440L848-440L848-635L894-635Q912-635 923.50-623Q935-611 935-594L935-594L935-481Q935-464 923.50-452Q912-440 894-440L894-440ZM1300-1468L1300-1388L629-1388L481-1271L1300-1271L1300-1191L399-1191L313-937L1300-937L1300-857L294-857L294-579L1300-579L1300-499L294-499L294 260L1300 260L1300 340L214 340L214-909L338-1254L611-1468L1300-1468ZM1300-1740L1300-1604L1163-1604Q1117-1604 1088.50-1576.50Q1060-1549 1033-1466L1033-1466Q1008-1390 981.50-1363Q955-1336 899-1336L899-1336L812-1336Q771-1336 764-1348.50Q757-1361 773.50-1379Q790-1397 817-1412L817-1412L845-1428Q869-1442 883-1466.50Q897-1491 916-1553L916-1553Q949-1660 999.50-1700Q1050-1740 1143-1740L1143-1740L1300-1740ZM2022-440L2022-440L1976-440L1976-635L2022-635Q2040-635 2051.50-623Q2063-611 2063-594L2063-594L2063-481Q2063-464 2051.50-452Q2040-440 2022-440ZM1901-231L1901-231L1827-231Q1789-231 1763.50-257Q1738-283 1738-320L1738-320L1738-659Q1738-697 1763.50-722.50Q1789-748 1827-748L1827-748L1901-748Q1939-748 1964.50-722.50Q1990-697 1990-659L1990-659L1990-320Q1990-283 1964.50-257Q1939-231 1901-231ZM1827-298L1901-298Q1924-298 1924-320L1924-320L1924-659Q1924-681 1901-681L1901-681L1827-681Q1804-681 1804-659L1804-659L1804-320Q1804-298 1827-298L1827-298ZM1752-635L1752-440L1706-440Q1688-440 1676.50-452Q1665-464 1665-481L1665-481L1665-594Q1665-611 1676.50-623Q1688-635 1706-635L1706-635L1752-635ZM1971-1388L1300-1388L1300-1468L1989-1468L2262-1254L2386-909L2386 340L1300 340L1300 260L2306 260L2306-499L1300-499L1300-579L2306-579L2306-857L1300-857L1300-937L2287-937L2201-1191L1300-1191L1300-1271L2119-1271L1971-1388ZM1437-1604L1300-1604L1300-1740L1457-1740Q1550-1740 1600.50-1700Q1651-1660 1684-1553L1684-1553Q1704-1491 1717.50-1466.50Q1731-1442 1755-1428L1755-1428L1783-1412Q1811-1397 1827-1379Q1843-1361 1836.50-1348.50Q1830-1336 1788-1336L1788-1336L1701-1336Q1646-1336 1619-1363Q1592-1390 1567-1466L1567-1466Q1540-1549 1511.50-1576.50Q1483-1604 1437-1604L1437-1604Z"/>
</svg>